<svg width="112" height="34" viewBox="0 0 112 34" fill="none" xmlns="http://www.w3.org/2000/svg">
<g id="logotype" clip-path="url(#clip0_3305_267)">
<g id="logotype_2">
<path d="M12.4079 22.0551L15.3799 18.9097L18.7605 22.0551H24.5559L15.3427 12.9559L6.20386 22.0551H12.4079Z" fill="white"/>
<path d="M20.9154 7.45154L16.5317 11.9449L19.4294 14.9405L20.9154 13.4427L29.0513 21.6057C27.1938 26.5859 22.4386 30.1432 16.8289 30.1432C9.62184 30.1432 3.78929 24.2643 3.78929 17C3.82644 9.73568 9.65899 3.85683 16.8661 3.85683C23.2559 3.85683 28.6055 8.53744 29.6828 14.641L33.6207 18.8348C33.695 18.2357 33.7322 17.5991 33.7322 17C33.7322 12.4692 31.9861 8.20044 28.7912 4.98018C25.5963 1.75991 21.3612 0 16.8661 0C12.3338 0 8.13584 1.75991 4.94094 4.98018C1.74605 8.20044 0 12.4317 0 17C0 21.5683 1.74605 25.7996 4.94094 29.0198C8.13584 32.2401 12.3709 34 16.8661 34C21.3612 34 25.5963 32.2401 28.7912 29.0198C30.7602 27.0352 32.1719 24.6762 32.952 22.0925C33.1006 21.6432 33.212 21.1564 33.3235 20.707L29.9057 17.0749L20.9154 7.45154Z" fill="white"/>
<path d="M47.6485 10.9241H50.1287L48.7759 17.7799H52.9597L52.5588 19.7622H45.8948L47.6485 10.9241Z" fill="white"/>
<path d="M55.294 10.9241H57.7742L56.0205 19.7622H53.5403L55.294 10.9241Z" fill="white"/>
<path d="M61.6307 12.8559L61.2424 14.8002H65.113L64.7247 16.732H60.8666L60.2653 19.7622H57.7851L59.5388 10.9241H66.4032L66.0149 12.8559H61.6307Z" fill="white"/>
<path d="M69.63 12.8559L69.3419 14.3457H73.2376L72.8744 16.2143H68.9661L68.653 17.8304H73.2502L72.8493 19.7622H65.822L67.5757 10.9241H74.4402L74.0519 12.8559H69.63Z" fill="white"/>
<path d="M77.4575 12.9064H74.7643L75.1651 10.9241H83.0192L82.6183 12.9064H79.9377L78.5723 19.7622H76.0921L77.4575 12.9064Z" fill="white"/>
<path d="M86.8021 19.9389C85.9169 19.9389 85.1445 19.7748 84.4848 19.4465C83.8334 19.1183 83.3282 18.6595 82.9691 18.0703C82.6183 17.4811 82.443 16.8077 82.443 16.0502C82.443 15.0401 82.6726 14.1311 83.1319 13.323C83.5996 12.515 84.2468 11.8837 85.0735 11.4291C85.9086 10.9746 86.8564 10.7473 87.917 10.7473C88.8022 10.7473 89.5705 10.9115 90.2218 11.2397C90.8816 11.568 91.3868 12.0268 91.7375 12.616C92.0966 13.2052 92.2762 13.8785 92.2762 14.6361C92.2762 15.6462 92.0423 16.5552 91.5747 17.3633C91.1154 18.1713 90.4682 18.8026 89.6331 19.2572C88.8064 19.7117 87.8627 19.9389 86.8021 19.9389ZM87.0151 17.8683C87.5662 17.8683 88.0506 17.7294 88.4681 17.4517C88.8857 17.1739 89.2072 16.8035 89.4327 16.3406C89.6581 15.8692 89.7709 15.3516 89.7709 14.7876C89.7709 14.19 89.5872 13.7144 89.2197 13.3609C88.8606 12.9989 88.3554 12.818 87.704 12.818C87.1529 12.818 86.6685 12.9569 86.251 13.2346C85.8334 13.5124 85.5119 13.887 85.2864 14.3583C85.061 14.8213 84.9482 15.3347 84.9482 15.8987C84.9482 16.4963 85.1278 16.9761 85.4869 17.338C85.8543 17.6915 86.3637 17.8683 87.0151 17.8683Z" fill="white"/>
<path d="M96.9323 19.9389C96.1723 19.9389 95.5168 19.8127 94.9656 19.5602C94.4145 19.2992 93.9927 18.9289 93.7004 18.4491C93.4082 17.9693 93.262 17.4054 93.262 16.7572C93.262 16.4879 93.2954 16.1764 93.3622 15.8229L94.3393 10.9241H96.8195L95.855 15.785C95.8049 16.0376 95.7798 16.269 95.7798 16.4795C95.7798 17.4054 96.2642 17.8683 97.2329 17.8683C97.759 17.8683 98.1724 17.7084 98.473 17.3885C98.782 17.0603 99.0116 16.5258 99.162 15.785L100.126 10.9241H102.569L101.58 15.9366C101.045 18.6048 99.496 19.9389 96.9323 19.9389Z" fill="white"/>
<path d="M111.54 13.7397C111.54 14.5477 111.327 15.2463 110.901 15.8355C110.475 16.4163 109.878 16.8414 109.11 17.1108L110.6 19.7622H108.007L106.704 17.4138H105.452L104.988 19.7622H102.508L104.262 10.9241H108.007C109.126 10.9241 109.995 11.1724 110.613 11.669C111.231 12.1656 111.54 12.8559 111.54 13.7397ZM109.034 13.9796C109.034 13.6176 108.913 13.3483 108.671 13.1715C108.429 12.9863 108.091 12.8937 107.656 12.8937H106.354L105.828 15.482H107.306C107.857 15.482 108.283 15.3516 108.583 15.0906C108.884 14.8297 109.034 14.4593 109.034 13.9796Z" fill="white"/>
<path d="M47.5461 28.0956C47.244 28.0956 46.9695 28.0282 46.7226 27.8935C46.4786 27.7559 46.2869 27.5686 46.1475 27.3314C46.011 27.0943 45.9427 26.8278 45.9427 26.5321C45.9427 26.2364 46.011 25.97 46.1475 25.7329C46.2869 25.4957 46.4786 25.3098 46.7226 25.1751C46.9695 25.0375 47.244 24.9687 47.5461 24.9687C47.8482 24.9687 48.1198 25.0361 48.3609 25.1707C48.6049 25.3054 48.7966 25.4928 48.936 25.7329C49.0754 25.97 49.1451 26.2364 49.1451 26.5321C49.1451 26.8278 49.0754 27.0957 48.936 27.3358C48.7966 27.573 48.6049 27.7589 48.3609 27.8935C48.1198 28.0282 47.8482 28.0956 47.5461 28.0956ZM47.5461 27.8057C47.7872 27.8057 48.005 27.7515 48.1997 27.6432C48.3943 27.532 48.5468 27.3797 48.6572 27.1865C48.7675 26.9903 48.8227 26.7722 48.8227 26.5321C48.8227 26.2921 48.7675 26.0754 48.6572 25.8822C48.5468 25.686 48.3943 25.5338 48.1997 25.4255C48.005 25.3142 47.7872 25.2586 47.5461 25.2586C47.305 25.2586 47.0857 25.3142 46.8882 25.4255C46.6936 25.5338 46.5396 25.686 46.4264 25.8822C46.316 26.0754 46.2608 26.2921 46.2608 26.5321C46.2608 26.7722 46.316 26.9903 46.4264 27.1865C46.5396 27.3797 46.6936 27.532 46.8882 27.6432C47.0857 27.7515 47.305 27.8057 47.5461 27.8057Z" fill="white"/>
<path d="M51.0212 25.7417C51.2361 25.7417 51.4308 25.7914 51.605 25.891C51.7793 25.9876 51.9158 26.1252 52.0146 26.3038C52.1133 26.4824 52.1627 26.6859 52.1627 26.9142C52.1627 27.1455 52.1133 27.3504 52.0146 27.529C51.9158 27.7076 51.7793 27.8467 51.605 27.9462C51.4337 28.0429 51.239 28.0912 51.0212 28.0912C50.8353 28.0912 50.6668 28.0531 50.5158 27.977C50.3676 27.8979 50.2456 27.7837 50.1498 27.6344V28.9212H49.8404V25.7592H50.1367V26.216C50.2297 26.0637 50.3517 25.9466 50.5027 25.8646C50.6567 25.7826 50.8295 25.7417 51.0212 25.7417ZM50.9994 27.8145C51.1592 27.8145 51.3044 27.7779 51.4351 27.7047C51.5658 27.6286 51.6675 27.5217 51.7401 27.3841C51.8156 27.2465 51.8534 27.0899 51.8534 26.9142C51.8534 26.7385 51.8156 26.5834 51.7401 26.4487C51.6675 26.3111 51.5658 26.2042 51.4351 26.1281C51.3044 26.052 51.1592 26.0139 50.9994 26.0139C50.8367 26.0139 50.6901 26.052 50.5594 26.1281C50.4315 26.2042 50.3299 26.3111 50.2544 26.4487C50.1817 26.5834 50.1454 26.7385 50.1454 26.9142C50.1454 27.0899 50.1817 27.2465 50.2544 27.3841C50.3299 27.5217 50.4315 27.6286 50.5594 27.7047C50.6901 27.7779 50.8367 27.8145 50.9994 27.8145Z" fill="white"/>
<path d="M54.4482 26.0359H53.1367V28.0692H52.8274V25.7592H54.4482V26.0359Z" fill="white"/>
<path d="M55.6839 25.7417C55.983 25.7417 56.2125 25.8178 56.3723 25.97C56.532 26.1193 56.6119 26.3418 56.6119 26.6375V28.0692H56.3156V27.7091C56.2459 27.8291 56.1428 27.9228 56.0063 27.9902C55.8727 28.0575 55.7129 28.0912 55.527 28.0912C55.2714 28.0912 55.0681 28.0297 54.917 27.9067C54.766 27.7837 54.6905 27.6213 54.6905 27.4192C54.6905 27.2231 54.7602 27.065 54.8996 26.945C55.0419 26.8249 55.267 26.7649 55.5749 26.7649H56.3026V26.6244C56.3026 26.4253 56.2474 26.2745 56.137 26.172C56.0266 26.0666 55.8654 26.0139 55.6534 26.0139C55.5081 26.0139 55.3687 26.0388 55.2351 26.0886C55.1015 26.1354 54.9867 26.2013 54.8909 26.2862L54.7515 26.0535C54.8677 25.9539 55.0071 25.8778 55.1697 25.8251C55.3324 25.7695 55.5038 25.7417 55.6839 25.7417ZM55.5749 27.8452C55.7492 27.8452 55.8988 27.8057 56.0237 27.7267C56.1486 27.6447 56.2416 27.5276 56.3026 27.3753V26.9977H55.5837C55.1915 26.9977 54.9955 27.1353 54.9955 27.4105C54.9955 27.5451 55.0463 27.652 55.148 27.731C55.2496 27.8072 55.3919 27.8452 55.5749 27.8452Z" fill="white"/>
<path d="M57.4354 25.7592H57.7448V26.7825H59.1869V25.7592H59.4963V28.0692H59.1869V27.0504H57.7448V28.0692H57.4354V25.7592Z" fill="white"/>
<path d="M60.3755 25.7592H60.6849V27.5949L62.2142 25.7592H62.4887V28.0692H62.1793V26.2335L60.6544 28.0692H60.3755V25.7592Z" fill="white"/>
<path d="M64.4438 26.8659C64.6065 26.904 64.7314 26.9698 64.8185 27.0635C64.9086 27.1572 64.9536 27.2714 64.9536 27.4061C64.9536 27.5407 64.9071 27.6608 64.8142 27.7662C64.7241 27.8716 64.6007 27.9536 64.4438 28.0121C64.287 28.0677 64.1141 28.0956 63.9253 28.0956C63.7598 28.0956 63.5971 28.0721 63.4374 28.0253C63.2776 27.9755 63.1382 27.9038 63.0191 27.8101L63.1236 27.5773C63.2282 27.6564 63.3502 27.7179 63.4896 27.7618C63.6291 27.8057 63.7699 27.8277 63.9123 27.8277C64.1243 27.8277 64.2971 27.7881 64.4307 27.7091C64.5673 27.6271 64.6355 27.5173 64.6355 27.3797C64.6355 27.2568 64.5803 27.1616 64.47 27.0943C64.3596 27.024 64.2085 26.9889 64.0168 26.9889H63.6247V26.7605H63.9994C64.1708 26.7605 64.3088 26.7283 64.4133 26.6639C64.5179 26.5966 64.5702 26.5073 64.5702 26.396C64.5702 26.273 64.5106 26.1764 64.3915 26.1062C64.2754 26.0359 64.1228 26.0008 63.934 26.0008C63.6872 26.0008 63.4432 26.0637 63.2021 26.1896L63.1149 25.9481C63.388 25.8046 63.6712 25.7329 63.9645 25.7329C64.1388 25.7329 64.2957 25.7592 64.4351 25.8119C64.5774 25.8617 64.6878 25.9334 64.7662 26.0271C64.8476 26.1208 64.8882 26.2291 64.8882 26.3521C64.8882 26.4692 64.8476 26.5731 64.7662 26.6639C64.6878 26.7547 64.5803 26.822 64.4438 26.8659Z" fill="white"/>
<path d="M66.4445 25.7417C66.7436 25.7417 66.9731 25.8178 67.1329 25.97C67.2926 26.1193 67.3725 26.3418 67.3725 26.6375V28.0692H67.0762V27.7091C67.0065 27.8291 66.9034 27.9228 66.7669 27.9902C66.6333 28.0575 66.4735 28.0912 66.2876 28.0912C66.032 28.0912 65.8287 28.0297 65.6776 27.9067C65.5266 27.7837 65.4511 27.6213 65.4511 27.4192C65.4511 27.2231 65.5208 27.065 65.6602 26.945C65.8025 26.8249 66.0276 26.7649 66.3355 26.7649H67.0632V26.6244C67.0632 26.4253 67.008 26.2745 66.8976 26.172C66.7872 26.0666 66.626 26.0139 66.414 26.0139C66.2687 26.0139 66.1293 26.0388 65.9957 26.0886C65.8621 26.1354 65.7473 26.2013 65.6515 26.2862L65.5121 26.0535C65.6283 25.9539 65.7677 25.8778 65.9303 25.8251C66.093 25.7695 66.2644 25.7417 66.4445 25.7417ZM66.3355 27.8452C66.5098 27.8452 66.6594 27.8057 66.7843 27.7267C66.9092 27.6447 67.0022 27.5276 67.0632 27.3753V26.9977H66.3443C65.9521 26.9977 65.7561 27.1353 65.7561 27.4105C65.7561 27.5451 65.8069 27.652 65.9086 27.731C66.0102 27.8072 66.1525 27.8452 66.3355 27.8452Z" fill="white"/>
<path d="M70.5836 27.7969V28.6489H70.2917V28.0692H68.196V25.7592H68.5054V27.7969H69.904V25.7592H70.2133V27.7969H70.5836Z" fill="white"/>
<path d="M71.1744 25.7592H71.4838V27.5949L73.0131 25.7592H73.2876V28.0692H72.9782V26.2335L71.4533 28.0692H71.1744V25.7592Z" fill="white"/>
<path d="M75.9343 25.7592V28.0692H75.6511V27.3051H74.8451L74.3135 28.0692H73.9781L74.5488 27.2611C74.3716 27.2114 74.2351 27.1265 74.1393 27.0064C74.0434 26.8864 73.9955 26.7342 73.9955 26.5497C73.9955 26.2921 74.0826 26.0959 74.2569 25.9612C74.4312 25.8266 74.6694 25.7592 74.9715 25.7592H75.9343ZM74.3092 26.5585C74.3092 26.901 74.5256 27.0723 74.9584 27.0723H75.6511V26.0359H74.9802C74.5328 26.0359 74.3092 26.2101 74.3092 26.5585Z" fill="white"/>
<path d="M80.0132 25.7592V28.0692H79.7039V26.0359H78.2661V28.0692H77.9567V25.7592H80.0132Z" fill="white"/>
<path d="M81.8381 28.0912C81.6173 28.0912 81.4183 28.0414 81.2411 27.9418C81.064 27.8394 80.9245 27.6988 80.8229 27.5203C80.7212 27.3417 80.6704 27.1396 80.6704 26.9142C80.6704 26.6888 80.7212 26.4868 80.8229 26.3082C80.9245 26.1296 81.064 25.9905 81.2411 25.891C81.4183 25.7914 81.6173 25.7417 81.8381 25.7417C82.0588 25.7417 82.2578 25.7914 82.435 25.891C82.6121 25.9905 82.7501 26.1296 82.8489 26.3082C82.9505 26.4868 83.0014 26.6888 83.0014 26.9142C83.0014 27.1396 82.9505 27.3417 82.8489 27.5203C82.7501 27.6988 82.6121 27.8394 82.435 27.9418C82.2578 28.0414 82.0588 28.0912 81.8381 28.0912ZM81.8381 27.8145C82.0007 27.8145 82.1459 27.7779 82.2738 27.7047C82.4045 27.6286 82.5061 27.5217 82.5788 27.3841C82.6514 27.2465 82.6877 27.0899 82.6877 26.9142C82.6877 26.7385 82.6514 26.5819 82.5788 26.4443C82.5061 26.3067 82.4045 26.2013 82.2738 26.1281C82.1459 26.052 82.0007 26.0139 81.8381 26.0139C81.6754 26.0139 81.5287 26.052 81.398 26.1281C81.2702 26.2013 81.1685 26.3067 81.093 26.4443C81.0204 26.5819 80.9841 26.7385 80.9841 26.9142C80.9841 27.0899 81.0204 27.2465 81.093 27.3841C81.1685 27.5217 81.2702 27.6286 81.398 27.7047C81.5287 27.7779 81.6754 27.8145 81.8381 27.8145Z" fill="white"/>
<path d="M85.0151 28.0692L84.2875 27.1031L83.5555 28.0692H83.207L84.1132 26.8835L83.2505 25.7592H83.5991L84.2875 26.6639L84.9759 25.7592H85.3158L84.4531 26.8835L85.368 28.0692H85.0151Z" fill="white"/>
<path d="M86.7397 28.0912C86.5189 28.0912 86.32 28.0414 86.1428 27.9418C85.9656 27.8394 85.8262 27.6988 85.7245 27.5203C85.6228 27.3417 85.572 27.1396 85.572 26.9142C85.572 26.6888 85.6228 26.4868 85.7245 26.3082C85.8262 26.1296 85.9656 25.9905 86.1428 25.891C86.32 25.7914 86.5189 25.7417 86.7397 25.7417C86.9604 25.7417 87.1594 25.7914 87.3366 25.891C87.5138 25.9905 87.6517 26.1296 87.7505 26.3082C87.8522 26.4868 87.903 26.6888 87.903 26.9142C87.903 27.1396 87.8522 27.3417 87.7505 27.5203C87.6517 27.6988 87.5138 27.8394 87.3366 27.9418C87.1594 28.0414 86.9604 28.0912 86.7397 28.0912ZM86.7397 27.8145C86.9023 27.8145 87.0476 27.7779 87.1754 27.7047C87.3061 27.6286 87.4078 27.5217 87.4804 27.3841C87.553 27.2465 87.5893 27.0899 87.5893 26.9142C87.5893 26.7385 87.553 26.5819 87.4804 26.4443C87.4078 26.3067 87.3061 26.2013 87.1754 26.1281C87.0476 26.052 86.9023 26.0139 86.7397 26.0139C86.577 26.0139 86.4303 26.052 86.2996 26.1281C86.1718 26.2013 86.0702 26.3067 85.9946 26.4443C85.922 26.5819 85.8857 26.7385 85.8857 26.9142C85.8857 27.0899 85.922 27.2465 85.9946 27.3841C86.0702 27.5217 86.1718 27.6286 86.2996 27.7047C86.4303 27.7779 86.577 27.8145 86.7397 27.8145Z" fill="white"/>
<path d="M90.7865 27.7969V28.6269H90.4946V28.0692H88.4425V28.6269H88.1505V27.7969H88.2812C88.4352 27.7881 88.5398 27.674 88.5949 27.4544C88.6501 27.2348 88.6879 26.9274 88.7082 26.5321L88.7387 25.7592H90.4292V27.7969H90.7865ZM88.9914 26.5497C88.9769 26.8776 88.9493 27.1484 88.9087 27.3622C88.868 27.573 88.7954 27.7179 88.6908 27.7969H90.1199V26.0359H89.0176L88.9914 26.5497Z" fill="white"/>
<path d="M92.3349 28.0912C92.1141 28.0912 91.9151 28.0414 91.7379 27.9418C91.5608 27.8394 91.4213 27.6988 91.3197 27.5203C91.218 27.3417 91.1672 27.1396 91.1672 26.9142C91.1672 26.6888 91.218 26.4868 91.3197 26.3082C91.4213 26.1296 91.5608 25.9905 91.7379 25.891C91.9151 25.7914 92.1141 25.7417 92.3349 25.7417C92.5556 25.7417 92.7546 25.7914 92.9318 25.891C93.1089 25.9905 93.2469 26.1296 93.3457 26.3082C93.4473 26.4868 93.4982 26.6888 93.4982 26.9142C93.4982 27.1396 93.4473 27.3417 93.3457 27.5203C93.2469 27.6988 93.1089 27.8394 92.9318 27.9418C92.7546 28.0414 92.5556 28.0912 92.3349 28.0912ZM92.3349 27.8145C92.4975 27.8145 92.6427 27.7779 92.7705 27.7047C92.9013 27.6286 93.0029 27.5217 93.0755 27.3841C93.1482 27.2465 93.1845 27.0899 93.1845 26.9142C93.1845 26.7385 93.1482 26.5819 93.0755 26.4443C93.0029 26.3067 92.9013 26.2013 92.7705 26.1281C92.6427 26.052 92.4975 26.0139 92.3349 26.0139C92.1722 26.0139 92.0255 26.052 91.8948 26.1281C91.767 26.2013 91.6653 26.3067 91.5898 26.4443C91.5172 26.5819 91.4809 26.7385 91.4809 26.9142C91.4809 27.0899 91.5172 27.2465 91.5898 27.3841C91.6653 27.5217 91.767 27.6286 91.8948 27.7047C92.0255 27.7779 92.1722 27.8145 92.3349 27.8145Z" fill="white"/>
<path d="M95.6189 26.8747C95.9297 26.9479 96.0851 27.1367 96.0851 27.4412C96.0851 27.6432 96.011 27.7984 95.8629 27.9067C95.7148 28.015 95.494 28.0692 95.2006 28.0692H94.1593V25.7592H95.1701C95.4316 25.7592 95.6363 25.8105 95.7845 25.9129C95.9326 26.0154 96.0067 26.1618 96.0067 26.3521C96.0067 26.478 95.9718 26.5863 95.9021 26.6771C95.8353 26.7649 95.7409 26.8308 95.6189 26.8747ZM94.4599 26.7869H95.1483C95.3255 26.7869 95.4606 26.7532 95.5536 26.6859C95.6494 26.6185 95.6973 26.5204 95.6973 26.3916C95.6973 26.2628 95.6494 26.1662 95.5536 26.1018C95.4606 26.0374 95.3255 26.0052 95.1483 26.0052H94.4599V26.7869ZM95.1876 27.8233C95.3851 27.8233 95.5332 27.7911 95.632 27.7267C95.7307 27.6622 95.7801 27.5612 95.7801 27.4236C95.7801 27.286 95.7351 27.185 95.645 27.1206C95.555 27.0533 95.4127 27.0196 95.2181 27.0196H94.4599V27.8233H95.1876Z" fill="white"/>
<path d="M99.41 26.8747C99.7208 26.9479 99.8762 27.1367 99.8762 27.4412C99.8762 27.6432 99.8021 27.7984 99.654 27.9067C99.5059 28.015 99.2851 28.0692 98.9917 28.0692H97.9504V25.7592H98.9612C99.2227 25.7592 99.4274 25.8105 99.5756 25.9129C99.7237 26.0154 99.7978 26.1618 99.7978 26.3521C99.7978 26.478 99.7629 26.5863 99.6932 26.6771C99.6264 26.7649 99.532 26.8308 99.41 26.8747ZM98.251 26.7869H98.9394C99.1166 26.7869 99.2517 26.7532 99.3447 26.6859C99.4405 26.6185 99.4884 26.5204 99.4884 26.3916C99.4884 26.2628 99.4405 26.1662 99.3447 26.1018C99.2517 26.0374 99.1166 26.0052 98.9394 26.0052H98.251V26.7869ZM98.9787 27.8233C99.1762 27.8233 99.3243 27.7911 99.4231 27.7267C99.5218 27.6622 99.5712 27.5612 99.5712 27.4236C99.5712 27.286 99.5262 27.185 99.4361 27.1206C99.3461 27.0533 99.2038 27.0196 99.0092 27.0196H98.251V27.8233H98.9787Z" fill="white"/>
<path d="M103.362 26.0359H102.051V28.0692H101.742V25.7592H103.362V26.0359Z" fill="white"/>
<path d="M104.648 28.0912C104.428 28.0912 104.229 28.0414 104.052 27.9418C103.874 27.8394 103.735 27.6988 103.633 27.5203C103.532 27.3417 103.481 27.1396 103.481 26.9142C103.481 26.6888 103.532 26.4868 103.633 26.3082C103.735 26.1296 103.874 25.9905 104.052 25.891C104.229 25.7914 104.428 25.7417 104.648 25.7417C104.869 25.7417 105.068 25.7914 105.245 25.891C105.423 25.9905 105.561 26.1296 105.659 26.3082C105.761 26.4868 105.812 26.6888 105.812 26.9142C105.812 27.1396 105.761 27.3417 105.659 27.5203C105.561 27.6988 105.423 27.8394 105.245 27.9418C105.068 28.0414 104.869 28.0912 104.648 28.0912ZM104.648 27.8145C104.811 27.8145 104.956 27.7779 105.084 27.7047C105.215 27.6286 105.317 27.5217 105.389 27.3841C105.462 27.2465 105.498 27.0899 105.498 26.9142C105.498 26.7385 105.462 26.5819 105.389 26.4443C105.317 26.3067 105.215 26.2013 105.084 26.1281C104.956 26.052 104.811 26.0139 104.648 26.0139C104.486 26.0139 104.339 26.052 104.208 26.1281C104.081 26.2013 103.979 26.3067 103.903 26.4443C103.831 26.5819 103.795 26.7385 103.795 26.9142C103.795 27.0899 103.831 27.2465 103.903 27.3841C103.979 27.5217 104.081 27.6286 104.208 27.7047C104.339 27.7779 104.486 27.8145 104.648 27.8145Z" fill="white"/>
<path d="M107.654 25.7417C107.869 25.7417 108.063 25.7914 108.238 25.891C108.412 25.9876 108.548 26.1252 108.647 26.3038C108.746 26.4824 108.795 26.6859 108.795 26.9142C108.795 27.1455 108.746 27.3504 108.647 27.529C108.548 27.7076 108.412 27.8467 108.238 27.9462C108.066 28.0429 107.872 28.0912 107.654 28.0912C107.468 28.0912 107.299 28.0531 107.148 27.977C107 27.8979 106.878 27.7837 106.782 27.6344V28.9212H106.473V25.7592H106.769V26.216C106.862 26.0637 106.984 25.9466 107.135 25.8646C107.289 25.7826 107.462 25.7417 107.654 25.7417ZM107.632 27.8145C107.792 27.8145 107.937 27.7779 108.068 27.7047C108.198 27.6286 108.3 27.5217 108.373 27.3841C108.448 27.2465 108.486 27.0899 108.486 26.9142C108.486 26.7385 108.448 26.5834 108.373 26.4487C108.3 26.3111 108.198 26.2042 108.068 26.1281C107.937 26.052 107.792 26.0139 107.632 26.0139C107.469 26.0139 107.323 26.052 107.192 26.1281C107.064 26.2042 106.962 26.3111 106.887 26.4487C106.814 26.5834 106.778 26.7385 106.778 26.9142C106.778 27.0899 106.814 27.2465 106.887 27.3841C106.962 27.5217 107.064 27.6286 107.192 27.7047C107.323 27.7779 107.469 27.8145 107.632 27.8145Z" fill="white"/>
<path d="M110.423 26.5761C110.71 26.579 110.93 26.6434 111.081 26.7693C111.232 26.8952 111.307 27.0767 111.307 27.3138C111.307 27.5598 111.226 27.7486 111.063 27.8804C110.901 28.0121 110.668 28.0765 110.366 28.0736L109.46 28.0692V25.7592H109.769V26.5673L110.423 26.5761ZM111.691 25.7592H112V28.0692H111.691V25.7592ZM110.349 27.8364C110.561 27.8394 110.72 27.7969 110.828 27.7091C110.938 27.6183 110.994 27.4866 110.994 27.3138C110.994 27.144 110.94 27.0181 110.832 26.9362C110.725 26.8542 110.564 26.8117 110.349 26.8088L109.769 26.8V27.8277L110.349 27.8364Z" fill="white"/>
</g>
</g>
<defs>
<clipPath id="clip0_3305_267">
<rect width="112" height="34" fill="white"/>
</clipPath>
</defs>
</svg>
