<svg xmlns="http://www.w3.org/2000/svg" xmlns:xlink="http://www.w3.org/1999/xlink"><defs>
<clipPath id="clip0_3305_132">
<rect width="205" height="62" fill="white"/>
</clipPath>

<clipPath id="clip0_3305_267">
<rect width="112" height="34" fill="white"/>
</clipPath>

<clipPath id="clip0_3305_95">
<rect width="144" height="44" fill="white"/>
</clipPath>

<clipPath id="clip0_248_2190">
<rect width="25" height="25" fill="white"/>
</clipPath>

<clipPath id="clip0_248_2161">
<rect width="25" height="25" fill="white"/>
</clipPath>

<clipPath id="clip0_131_2519">
<rect width="22" height="22" fill="white"/>
</clipPath>

<clipPath id="clip0_131_2514">
<rect width="22" height="22" fill="white"/>
</clipPath>

<clipPath id="clip0_248_2173">
<rect width="23" height="23" fill="white"/>
</clipPath>
</defs><symbol id="arrow-left" viewBox="0 0 14 9"><g fill="none">
<path id="Arrow/left" d="M0.646446 4.85355C0.451184 4.65829 0.451184 4.34171 0.646446 4.14645L3.82843 0.964466C4.02369 0.769204 4.34027 0.769204 4.53553 0.964466C4.7308 1.15973 4.7308 1.47631 4.53553 1.67157L1.70711 4.5L4.53553 7.32843C4.7308 7.52369 4.7308 7.84027 4.53553 8.03553C4.34027 8.2308 4.02369 8.2308 3.82843 8.03553L0.646446 4.85355ZM14 5H1V4H14V5Z" fill="white"/>
</g></symbol><symbol id="arrow-right" viewBox="0 0 14 9"><g fill="none">
<path id="Arrow/right" d="M13.3536 4.85355C13.5488 4.65829 13.5488 4.34171 13.3536 4.14645L10.1716 0.964466C9.97631 0.769204 9.65973 0.769204 9.46447 0.964466C9.2692 1.15973 9.2692 1.47631 9.46447 1.67157L12.2929 4.5L9.46447 7.32843C9.2692 7.52369 9.2692 7.84027 9.46447 8.03553C9.65973 8.2308 9.97631 8.2308 10.1716 8.03553L13.3536 4.85355ZM0 5H13V4H0V5Z" fill="white"/>
</g></symbol><symbol id="boots" viewBox="0 0 22 22"><g fill="none">
<path d="M20.7153 14.2434C21.3367 12.1487 20.8254 9.77108 20.2821 8.12359C20.2785 8.05985 20.2602 7.99807 20.2288 7.94394C20.0442 7.40879 19.8737 6.96921 19.7281 6.65194C19.9961 6.53708 20.1729 6.25909 20.1755 5.94861V2.76449C20.1755 2.34225 19.8576 2 19.4654 2H10.7408C10.5447 1.99962 10.3854 2.17043 10.3851 2.38158C10.3851 2.38946 10.3853 2.39735 10.3857 2.40518C10.5064 4.69866 10.3502 6.25441 9.89923 7.35146C9.89026 7.36235 9.88196 7.37386 9.87437 7.38586C9.87304 7.40492 9.87304 7.42413 9.87437 7.44319C9.70224 7.84255 9.46943 8.20812 9.1855 8.52495L9.15354 8.54789C9.15354 8.54789 9.15354 8.54789 9.15354 8.57465C8.73724 9.00205 8.25711 9.35094 7.73318 9.60671C6.82033 10.0427 5.88351 10.418 4.92796 10.7305L4.74687 10.7955C1.42677 11.9805 0.993564 14.1287 1.00067 15.2066C0.999778 15.2219 0.999778 15.2372 1.00067 15.2525V17.9817C1.0012 18.1146 1.06569 18.2376 1.17111 18.3066C1.9848 18.8396 2.86311 19.2486 3.78102 19.5222C3.9698 19.5793 4.1659 19.4609 4.21898 19.2577C4.22897 19.2194 4.23336 19.1797 4.23199 19.1399V19.052H4.75397V19.4343C4.75171 19.6236 4.87861 19.7862 5.05225 19.8165C5.36117 19.87 5.6701 19.9121 5.97193 19.9388C6.07082 19.9478 6.16869 19.9117 6.2418 19.8395C6.31486 19.7665 6.35609 19.6639 6.35543 19.5566V19.075H6.87741V19.6178C6.87741 19.8288 7.0364 20 7.2325 20C7.53077 20 7.82905 20 8.14863 19.9541C8.33359 19.9382 8.47589 19.7716 8.47531 19.5719V19.075H8.9973V19.4113C8.99477 19.6224 9.15167 19.7958 9.34777 19.7985C9.36832 19.7988 9.38887 19.7972 9.4092 19.7936C10.061 19.6861 10.7035 19.5212 11.3302 19.3005L11.3871 19.2737C13.8727 17.7447 15.4493 19.0023 15.5132 19.0559C15.5752 19.1076 15.6513 19.1358 15.7298 19.1361H16.1701C16.3662 19.1361 16.5252 18.965 16.5252 18.7539V18.1079H17.033V18.7462C17.033 18.9573 17.192 19.1285 17.3881 19.1285H18.5315C18.7276 19.1285 18.8866 18.9573 18.8866 18.7462V18.1079H19.4121V18.7462C19.4121 18.9573 19.5711 19.1285 19.7672 19.1285H20.6443C20.8404 19.1285 20.9993 18.9573 20.9993 18.7462V14.6256C21.0028 14.4411 20.8833 14.2803 20.7153 14.2434ZM12.289 2.77214H19.4476V5.93714H12.289V2.77214ZM7.8255 10.3941L7.82905 10.4171C8.12014 10.6715 8.38876 10.9543 8.63155 11.2618C8.56715 11.3771 8.53395 11.5095 8.53568 11.6441C8.53324 12.0473 8.83493 12.3763 9.20946 12.3789C9.58404 12.3815 9.88964 12.0568 9.89208 11.6536C9.89439 11.2737 9.62572 10.9555 9.27427 10.9216C9.04967 10.592 8.79379 10.2884 8.51082 10.0157C8.82814 9.8213 9.12668 9.59338 9.4021 9.33532C9.74649 9.68311 10.0669 10.0574 10.3608 10.4553C10.2373 10.836 10.4238 11.2523 10.7774 11.3854C11.131 11.5183 11.5178 11.3176 11.6414 10.9369C11.7649 10.5563 11.5784 10.1399 11.2248 10.0069C11.1515 9.97926 11.0742 9.96545 10.9965 9.96602H10.9112C10.5998 9.54393 10.2604 9.14663 9.89567 8.77724C10.0649 8.5529 10.2147 8.31238 10.3431 8.05861C10.8928 8.36665 11.4241 8.71135 11.9339 9.09068C11.9304 9.49811 12.2344 9.83143 12.6129 9.8352C12.9914 9.83897 13.301 9.51172 13.3045 9.1043C13.308 8.69687 13.004 8.36355 12.6255 8.35977C12.5174 8.35868 12.4106 8.38515 12.3138 8.43704C11.7773 8.046 11.2187 7.69113 10.6414 7.37439C11.0284 6.26587 11.1953 4.79422 11.1172 2.78743H11.5824V5.95243C11.5824 6.37467 11.9003 6.71693 12.2925 6.71693H18.9469C19.0392 6.91952 19.1955 7.27118 19.3659 7.72988H19.2203C17.0632 7.74665 15.3271 9.64269 15.3427 11.9648C15.3515 13.2844 15.9353 14.5229 16.9194 15.3098C14.0467 16.124 9.72523 17.0911 6.08911 16.8388C6.76023 13.9529 5.95773 12.1754 5.43574 11.3956C6.24859 11.1086 7.04634 10.7743 7.8255 10.3941ZM4.72201 11.6135C5.10551 12.099 6.10686 13.7312 5.37183 16.7318C4.09235 16.6235 2.84967 16.2193 1.7286 15.5468C1.71586 15.4595 1.70756 15.3714 1.70374 15.2831V15.2563C1.67534 14.4421 1.95941 12.68 4.72201 11.6135ZM20.1223 18.364V17.7256C20.1223 17.5145 19.9633 17.3434 19.7672 17.3434H18.535C18.3389 17.3434 18.1799 17.5145 18.1799 17.7256V18.364H17.7432V17.7256C17.7432 17.5145 17.5842 17.3434 17.3881 17.3434H16.163C15.9669 17.3434 15.8079 17.5145 15.8079 17.7256V18.3487C15.325 18.0238 13.5602 17.0796 11.0568 18.5857C10.6114 18.7439 10.1572 18.8716 9.69683 18.9679V18.7042C9.69683 18.4931 9.53783 18.3219 9.34173 18.3219H8.11667C7.92058 18.3219 7.76158 18.4931 7.76158 18.7042V19.2279H7.58049V18.6927C7.58049 18.4816 7.4215 18.3105 7.2254 18.3105H5.99323C5.79714 18.3105 5.63814 18.4816 5.63814 18.6927V19.1476L5.45705 19.1208V18.6927C5.45705 18.4816 5.29806 18.3105 5.10196 18.3105H3.86979C3.68919 18.3091 3.53637 18.4538 3.5147 18.6468C2.88446 18.4235 2.27757 18.1301 1.70374 17.7715V16.4031C3.25194 17.286 5.25465 17.6186 7.38519 17.6186C13.0453 17.6186 19.5222 15.2869 20.2856 15.0079L20.2892 18.364H20.1223ZM19.9483 14.3313C19.6465 14.4383 18.9043 14.7135 17.8781 15.0079C16.2894 14.1801 15.6248 12.1228 16.3937 10.4125C16.9197 9.24267 18.0132 8.49175 19.2203 8.47144C19.3603 8.46934 19.5003 8.47698 19.6394 8.49437L19.6429 8.50584C20.1649 10.1266 20.6336 12.4392 19.9483 14.3313Z" fill="#0266C1"/>
<path d="M13.6564 3.23469C13.0857 3.23469 12.6231 3.73271 12.6231 4.34703C12.625 4.96049 13.0865 5.45727 13.6564 5.45937C14.227 5.45937 14.6897 4.96135 14.6897 4.34703C14.6897 3.73271 14.2271 3.23469 13.6564 3.23469ZM13.6564 4.69487C13.4779 4.69487 13.3332 4.53916 13.3332 4.34703C13.3332 4.1549 13.4779 3.99918 13.6564 3.99918C13.8348 3.99918 13.9795 4.1549 13.9795 4.34703C13.9795 4.53916 13.8348 4.69487 13.6564 4.69487Z" fill="#0266C1"/>
</g></symbol><symbol id="cross" viewBox="0 0 22 22"><g fill="none">
<path d="M2 2L11 11M20 20L11 11M11 11L20 2L2 20" stroke="#2D383F" stroke-width="2"/>
</g></symbol><symbol id="crown" viewBox="0 0 22 22"><g fill="none">
<path d="M17.6867 20H4.31331M21 7.11028L18.0746 16.8049H3.92539L1 7.11028L6.77168 10.6142L11 2L15.2283 10.6142L21 7.11028Z" stroke="#0266C1"/>
</g></symbol><symbol id="leaf" viewBox="0 0 22 22"><g fill="none">
<path d="M10.6903 16.2442C10.0125 13.3813 8.01953 10.9718 5.27543 9.69773C3.92399 9.07026 2.46282 8.75181 1 8.74238C1.08555 10.771 1.83429 12.7457 3.17529 14.367C5.06036 16.646 7.9121 17.9803 10.933 17.9998C10.9083 17.4135 10.828 16.8259 10.6903 16.2442ZM10.6903 16.2442C10.1339 13.894 8.69109 11.8494 6.67408 10.4875C6.70814 10.2845 6.74903 10.0818 6.79684 9.87988C7.37026 7.4577 8.88519 5.36004 11 4C13.1147 5.36004 14.6297 7.4577 15.2031 9.87988C15.2509 10.0818 15.2918 10.2845 15.3258 10.4875C13.3088 11.8493 11.8661 13.894 11.3097 16.2442M10.6903 16.2442C10.8279 16.8257 10.9082 17.4131 10.933 17.9992C10.9748 17.9997 11.0166 18 11.0585 18C11.9054 18 12.7394 17.8966 13.5431 17.698C13.5477 17.692 13.5522 17.6859 13.5567 17.6799C12.752 17.8849 11.9162 17.9943 11.067 17.9998M11.3097 16.2442C11.9875 13.3813 13.9805 10.9718 16.7246 9.69773C18.076 9.07026 19.5372 8.75181 21 8.74238C20.9144 10.771 20.1657 12.7457 18.8247 14.367C16.9396 16.646 14.0879 17.9803 11.067 17.9998M11.3097 16.2442C11.172 16.8259 11.0917 17.4135 11.067 17.9998" stroke="#0266C1" stroke-linecap="round" stroke-linejoin="round"/>
</g></symbol><symbol id="level" viewBox="0 0 22 22"><g fill="none">
<path d="M20 21H16.4V1H20V21Z" stroke="#2D383F" stroke-miterlimit="16" stroke-linecap="round"/>
<path d="M12.8 21V6.45455H9.2L9.2 21H12.8Z" stroke="#2D383F" stroke-miterlimit="16" stroke-linecap="round"/>
<path d="M5.6 21V11.9091H2V21H5.6Z" stroke="#2D383F" stroke-miterlimit="16" stroke-linecap="round"/>
</g></symbol><symbol id="logotype-desktop" viewBox="0 0 205 62"><g fill="none">
<g id="logotype" clip-path="url(#clip0_3305_132)">
<g id="logotype_2">
<path d="M22.7109 40.218L28.1507 34.4824L34.3385 40.218H44.9461L28.0827 23.6255L11.3553 40.218H22.7109Z" fill="white"/>
<path d="M38.2827 13.5881L30.259 21.7819L35.5628 27.2445L38.2827 24.5132L53.1742 39.3987C49.7743 48.4802 41.0706 54.967 30.8029 54.967C17.6114 54.967 6.93576 44.2467 6.93576 31C7.00376 17.7533 17.6794 7.03304 30.8709 7.03304C42.5665 7.03304 52.3582 15.5683 54.3301 26.6982L61.5379 34.3458C61.6739 33.2533 61.7419 32.0925 61.7419 31C61.7419 22.7379 58.546 14.9537 52.6982 9.0815C46.8504 3.20925 39.0987 0 30.8709 0C22.5752 0 14.8915 3.20925 9.04369 9.0815C3.19589 14.9537 0 22.6696 0 31C0 39.3304 3.19589 47.0463 9.04369 52.9185C14.8915 58.7907 22.6432 62 30.8709 62C39.0987 62 46.8504 58.7907 52.6982 52.9185C56.3021 49.2996 58.886 44.9978 60.3139 40.2863C60.5859 39.467 60.7899 38.5793 60.9939 37.7599L54.7381 31.1366L38.2827 13.5881Z" fill="white"/>
<path d="M87.2138 19.9204H91.7535L89.2773 32.4222H96.9351L96.2015 36.0369H84.0039L87.2138 19.9204Z" fill="white"/>
<path d="M101.208 19.9204H105.747L102.538 36.0369H97.9979L101.208 19.9204Z" fill="white"/>
<path d="M112.806 23.443L112.095 26.9887H119.18L118.469 30.5113H111.408L110.307 36.0369H105.767L108.977 19.9204H121.542L120.831 23.443H112.806Z" fill="white"/>
<path d="M127.448 23.443L126.921 26.1598H134.051L133.386 29.5673H126.233L125.659 32.5143H134.074L133.34 36.0369H120.478L123.688 19.9204H136.252L135.541 23.443H127.448Z" fill="white"/>
<path d="M141.775 23.5351H136.845L137.579 19.9204H151.955L151.221 23.5351H146.315L143.815 36.0369H139.276L141.775 23.5351Z" fill="white"/>
<path d="M158.879 36.3593C157.259 36.3593 155.845 36.06 154.637 35.4613C153.445 34.8627 152.52 34.0262 151.863 32.9518C151.221 31.8773 150.9 30.6494 150.9 29.268C150.9 27.4261 151.32 25.7684 152.161 24.2949C153.017 22.8214 154.202 21.6702 155.715 20.8414C157.243 20.0125 158.978 19.5981 160.919 19.5981C162.54 19.5981 163.946 19.8974 165.138 20.496C166.346 21.0946 167.27 21.9311 167.912 23.0056C168.57 24.08 168.898 25.3079 168.898 26.6893C168.898 28.5312 168.47 30.1889 167.614 31.6624C166.774 33.136 165.589 34.2871 164.061 35.116C162.547 35.9448 160.82 36.3593 158.879 36.3593ZM159.269 32.5834C160.278 32.5834 161.164 32.3301 161.928 31.8236C162.693 31.3171 163.281 30.6417 163.694 29.7975C164.106 28.938 164.313 27.994 164.313 26.9656C164.313 25.8758 163.977 25.0086 163.304 24.364C162.647 23.704 161.722 23.374 160.53 23.374C159.521 23.374 158.634 23.6272 157.87 24.1337C157.106 24.6402 156.517 25.3233 156.105 26.1828C155.692 27.027 155.486 27.9633 155.486 28.9917C155.486 30.0815 155.814 30.9564 156.471 31.6164C157.144 32.2611 158.076 32.5834 159.269 32.5834Z" fill="white"/>
<path d="M177.421 36.3593C176.03 36.3593 174.83 36.129 173.821 35.6686C172.812 35.1927 172.04 34.5174 171.505 33.6425C170.97 32.7676 170.703 31.7392 170.703 30.5573C170.703 30.0661 170.764 29.4982 170.886 28.8536L172.675 19.9204H177.214L175.449 28.7845C175.357 29.245 175.311 29.6671 175.311 30.0508C175.311 31.7392 176.198 32.5834 177.971 32.5834C178.934 32.5834 179.69 32.2918 180.241 31.7085C180.806 31.1099 181.227 30.1352 181.502 28.7845L183.267 19.9204H187.738L185.927 29.0608C184.949 33.9264 182.113 36.3593 177.421 36.3593Z" fill="white"/>
<path d="M204.157 25.0547C204.157 26.5282 203.768 27.8022 202.988 28.8766C202.209 29.9357 201.116 30.7108 199.709 31.202L202.438 36.0369H197.692L195.307 31.7545H193.015L192.166 36.0369H187.627L190.836 19.9204H197.692C199.74 19.9204 201.33 20.3732 202.461 21.2788C203.592 22.1844 204.157 23.443 204.157 25.0547ZM199.572 25.4921C199.572 24.8321 199.35 24.3409 198.907 24.0186C198.464 23.6809 197.845 23.5121 197.05 23.5121H194.665L193.702 28.2319H196.408C197.417 28.2319 198.196 27.994 198.746 27.5182C199.297 27.0424 199.572 26.367 199.572 25.4921Z" fill="white"/>
<path d="M87.0264 51.2331C86.4734 51.2331 85.971 51.1103 85.5191 50.8647C85.0725 50.6138 84.7216 50.2721 84.4664 49.8396C84.2166 49.4072 84.0916 48.9214 84.0916 48.3821C84.0916 47.8429 84.2166 47.3571 84.4664 46.9247C84.7216 46.4922 85.0725 46.1532 85.5191 45.9076C85.971 45.6567 86.4734 45.5312 87.0264 45.5312C87.5793 45.5312 88.0764 45.654 88.5177 45.8996C88.9643 46.1452 89.3152 46.4869 89.5704 46.9247C89.8255 47.3571 89.9531 47.8429 89.9531 48.3821C89.9531 48.9214 89.8255 49.4099 89.5704 49.8477C89.3152 50.2801 88.9643 50.6191 88.5177 50.8647C88.0764 51.1103 87.5793 51.2331 87.0264 51.2331ZM87.0264 50.7045C87.4676 50.7045 87.8664 50.6058 88.2226 50.4082C88.5788 50.2053 88.8579 49.9277 89.06 49.5754C89.262 49.2177 89.363 48.8199 89.363 48.3821C89.363 47.9444 89.262 47.5493 89.06 47.1969C88.8579 46.8392 88.5788 46.5616 88.2226 46.3641C87.8664 46.1612 87.4676 46.0598 87.0264 46.0598C86.5851 46.0598 86.1837 46.1612 85.8222 46.3641C85.466 46.5616 85.1842 46.8392 84.9768 47.1969C84.7748 47.5493 84.6738 47.9444 84.6738 48.3821C84.6738 48.8199 84.7748 49.2177 84.9768 49.5754C85.1842 49.9277 85.466 50.2053 85.8222 50.4082C86.1837 50.6058 86.5851 50.7045 87.0264 50.7045Z" fill="white"/>
<path d="M93.387 46.9407C93.7804 46.9407 94.1367 47.0314 94.4556 47.213C94.7746 47.3891 95.0245 47.6401 95.2053 47.9657C95.386 48.2914 95.4764 48.6624 95.4764 49.0789C95.4764 49.5006 95.386 49.8743 95.2053 50.2C95.0245 50.5257 94.7746 50.7793 94.4556 50.9608C94.142 51.137 93.7858 51.2251 93.387 51.2251C93.0467 51.2251 92.7384 51.1557 92.4619 51.0168C92.1908 50.8727 91.9675 50.6645 91.792 50.3922V52.7386H91.2258V46.9727H91.7681V47.8056C91.9382 47.5279 92.1615 47.3144 92.438 47.1649C92.7198 47.0154 93.0361 46.9407 93.387 46.9407ZM93.3471 50.7205C93.6395 50.7205 93.9054 50.6538 94.1446 50.5203C94.3839 50.3815 94.5699 50.1867 94.7029 49.9357C94.8411 49.6848 94.9102 49.3992 94.9102 49.0789C94.9102 48.7585 94.8411 48.4756 94.7029 48.23C94.5699 47.9791 94.3839 47.7842 94.1446 47.6454C93.9054 47.5066 93.6395 47.4372 93.3471 47.4372C93.0494 47.4372 92.7809 47.5066 92.5417 47.6454C92.3077 47.7842 92.1217 47.9791 91.9834 48.23C91.8505 48.4756 91.7841 48.7585 91.7841 49.0789C91.7841 49.3992 91.8505 49.6848 91.9834 49.9357C92.1217 50.1867 92.3077 50.3815 92.5417 50.5203C92.7809 50.6538 93.0494 50.7205 93.3471 50.7205Z" fill="white"/>
<path d="M99.6596 47.4772H97.2592V51.185H96.693V46.9727H99.6596V47.4772Z" fill="white"/>
<path d="M101.921 46.9407C102.469 46.9407 102.889 47.0795 103.181 47.3571C103.474 47.6294 103.62 48.0351 103.62 48.5743V51.185H103.078V50.5283C102.95 50.7472 102.761 50.9181 102.512 51.0409C102.267 51.1637 101.975 51.2251 101.634 51.2251C101.166 51.2251 100.794 51.1129 100.518 50.8887C100.241 50.6645 100.103 50.3682 100.103 49.9998C100.103 49.6421 100.231 49.3538 100.486 49.1349C100.746 48.916 101.158 48.8066 101.722 48.8066H103.054V48.5503C103.054 48.1873 102.953 47.9123 102.751 47.7255C102.549 47.5333 102.254 47.4372 101.866 47.4372C101.6 47.4372 101.345 47.4826 101.1 47.5733C100.855 47.6587 100.645 47.7789 100.47 47.9337L100.215 47.5093C100.427 47.3277 100.683 47.1889 100.98 47.0928C101.278 46.9914 101.592 46.9407 101.921 46.9407ZM101.722 50.7766C102.041 50.7766 102.315 50.7045 102.543 50.5604C102.772 50.4109 102.942 50.1973 103.054 49.9197V49.231H101.738C101.02 49.231 100.661 49.4819 100.661 49.9838C100.661 50.2294 100.754 50.4242 100.94 50.5684C101.127 50.7072 101.387 50.7766 101.722 50.7766Z" fill="white"/>
<path d="M105.127 46.9727H105.694V48.8386H108.333V46.9727H108.899V51.185H108.333V49.3271H105.694V51.185H105.127V46.9727Z" fill="white"/>
<path d="M110.509 46.9727H111.075V50.3201L113.874 46.9727H114.377V51.185H113.81V47.8376L111.019 51.185H110.509V46.9727Z" fill="white"/>
<path d="M117.955 48.9908C118.253 49.0602 118.482 49.1803 118.641 49.3511C118.806 49.522 118.888 49.7302 118.888 49.9758C118.888 50.2214 118.803 50.4403 118.633 50.6325C118.468 50.8246 118.242 50.9741 117.955 51.0809C117.668 51.1824 117.352 51.2331 117.006 51.2331C116.703 51.2331 116.405 51.1904 116.113 51.1049C115.821 51.0142 115.565 50.8834 115.347 50.7125L115.539 50.2881C115.73 50.4322 115.954 50.5444 116.209 50.6244C116.464 50.7045 116.722 50.7446 116.982 50.7446C117.37 50.7446 117.687 50.6725 117.931 50.5283C118.181 50.3789 118.306 50.1787 118.306 49.9277C118.306 49.7035 118.205 49.53 118.003 49.4072C117.801 49.2791 117.525 49.215 117.174 49.215H116.456V48.7986H117.142C117.455 48.7986 117.708 48.7398 117.899 48.6224C118.091 48.4996 118.186 48.3368 118.186 48.1339C118.186 47.9097 118.077 47.7335 117.86 47.6054C117.647 47.4772 117.368 47.4132 117.022 47.4132C116.57 47.4132 116.124 47.5279 115.682 47.7575L115.523 47.3171C116.023 47.0555 116.541 46.9247 117.078 46.9247C117.397 46.9247 117.684 46.9727 117.939 47.0688C118.2 47.1596 118.402 47.2904 118.545 47.4612C118.694 47.632 118.769 47.8296 118.769 48.0538C118.769 48.2674 118.694 48.4569 118.545 48.6224C118.402 48.7879 118.205 48.9107 117.955 48.9908Z" fill="white"/>
<path d="M121.617 46.9407C122.165 46.9407 122.585 47.0795 122.877 47.3571C123.17 47.6294 123.316 48.0351 123.316 48.5743V51.185H122.773V50.5283C122.646 50.7472 122.457 50.9181 122.207 51.0409C121.963 51.1637 121.67 51.2251 121.33 51.2251C120.862 51.2251 120.49 51.1129 120.214 50.8887C119.937 50.6645 119.799 50.3682 119.799 49.9998C119.799 49.6421 119.926 49.3538 120.182 49.1349C120.442 48.916 120.854 48.8066 121.418 48.8066H122.75V48.5503C122.75 48.1873 122.649 47.9123 122.446 47.7255C122.244 47.5333 121.949 47.4372 121.561 47.4372C121.295 47.4372 121.04 47.4826 120.796 47.5733C120.551 47.6587 120.341 47.7789 120.166 47.9337L119.91 47.5093C120.123 47.3277 120.378 47.1889 120.676 47.0928C120.974 46.9914 121.287 46.9407 121.617 46.9407ZM121.418 50.7766C121.737 50.7766 122.011 50.7045 122.239 50.5604C122.468 50.4109 122.638 50.1973 122.75 49.9197V49.231H121.434C120.716 49.231 120.357 49.4819 120.357 49.9838C120.357 50.2294 120.45 50.4242 120.636 50.5684C120.822 50.7072 121.083 50.7766 121.418 50.7766Z" fill="white"/>
<path d="M129.193 50.6885V52.2421H128.659V51.185H124.823V46.9727H125.389V50.6885H127.949V46.9727H128.515V50.6885H129.193Z" fill="white"/>
<path d="M130.275 46.9727H130.841V50.3201L133.64 46.9727H134.142V51.185H133.576V47.8376L130.785 51.185H130.275V46.9727Z" fill="white"/>
<path d="M138.987 46.9727V51.185H138.469V49.7916H136.993L136.02 51.185H135.406L136.451 49.7115C136.127 49.6208 135.877 49.4659 135.701 49.247C135.526 49.0281 135.438 48.7505 135.438 48.4142C135.438 47.9444 135.598 47.5867 135.917 47.3411C136.236 47.0955 136.672 46.9727 137.225 46.9727H138.987ZM136.012 48.4302C136.012 49.0548 136.408 49.3672 137.201 49.3672H138.469V47.4772H137.24C136.422 47.4772 136.012 47.7949 136.012 48.4302Z" fill="white"/>
<path d="M146.453 46.9727V51.185H145.887V47.4772H143.255V51.185H142.689V46.9727H146.453Z" fill="white"/>
<path d="M149.793 51.2251C149.389 51.2251 149.025 51.1343 148.7 50.9528C148.376 50.7659 148.121 50.5097 147.935 50.184C147.749 49.8583 147.656 49.4899 147.656 49.0789C147.656 48.6678 147.749 48.2994 147.935 47.9737C148.121 47.6481 148.376 47.3945 148.7 47.213C149.025 47.0314 149.389 46.9407 149.793 46.9407C150.197 46.9407 150.561 47.0314 150.885 47.213C151.21 47.3945 151.462 47.6481 151.643 47.9737C151.829 48.2994 151.922 48.6678 151.922 49.0789C151.922 49.4899 151.829 49.8583 151.643 50.184C151.462 50.5097 151.21 50.7659 150.885 50.9528C150.561 51.1343 150.197 51.2251 149.793 51.2251ZM149.793 50.7205C150.091 50.7205 150.356 50.6538 150.59 50.5203C150.83 50.3815 151.016 50.1867 151.149 49.9357C151.282 49.6848 151.348 49.3992 151.348 49.0789C151.348 48.7585 151.282 48.4729 151.149 48.222C151.016 47.9711 150.83 47.7789 150.59 47.6454C150.356 47.5066 150.091 47.4372 149.793 47.4372C149.495 47.4372 149.227 47.5066 148.987 47.6454C148.753 47.7789 148.567 47.9711 148.429 48.222C148.296 48.4729 148.23 48.7585 148.23 49.0789C148.23 49.3992 148.296 49.6848 148.429 49.9357C148.567 50.1867 148.753 50.3815 148.987 50.5203C149.227 50.6538 149.495 50.7205 149.793 50.7205Z" fill="white"/>
<path d="M155.608 51.185L154.276 49.4232L152.936 51.185H152.298L153.957 49.0228L152.378 46.9727H153.016L154.276 48.6224L155.536 46.9727H156.158L154.579 49.0228L156.254 51.185H155.608Z" fill="white"/>
<path d="M158.765 51.2251C158.361 51.2251 157.996 51.1343 157.672 50.9528C157.348 50.7659 157.093 50.5097 156.906 50.184C156.72 49.8583 156.627 49.4899 156.627 49.0789C156.627 48.6678 156.72 48.2994 156.906 47.9737C157.093 47.6481 157.348 47.3945 157.672 47.213C157.996 47.0314 158.361 46.9407 158.765 46.9407C159.169 46.9407 159.533 47.0314 159.857 47.213C160.181 47.3945 160.434 47.6481 160.615 47.9737C160.801 48.2994 160.894 48.6678 160.894 49.0789C160.894 49.4899 160.801 49.8583 160.615 50.184C160.434 50.5097 160.181 50.7659 159.857 50.9528C159.533 51.1343 159.169 51.2251 158.765 51.2251ZM158.765 50.7205C159.062 50.7205 159.328 50.6538 159.562 50.5203C159.801 50.3815 159.987 50.1867 160.12 49.9357C160.253 49.6848 160.32 49.3992 160.32 49.0789C160.32 48.7585 160.253 48.4729 160.12 48.222C159.987 47.9711 159.801 47.7789 159.562 47.6454C159.328 47.5066 159.062 47.4372 158.765 47.4372C158.467 47.4372 158.198 47.5066 157.959 47.6454C157.725 47.7789 157.539 47.9711 157.401 48.222C157.268 48.4729 157.202 48.7585 157.202 49.0789C157.202 49.3992 157.268 49.6848 157.401 49.9357C157.539 50.1867 157.725 50.3815 157.959 50.5203C158.198 50.6538 158.467 50.7205 158.765 50.7205Z" fill="white"/>
<path d="M166.172 50.6885V52.2021H165.637V51.185H161.881V52.2021H161.347V50.6885H161.586C161.868 50.6725 162.059 50.4643 162.16 50.0639C162.261 49.6635 162.331 49.1029 162.368 48.3821L162.424 46.9727H165.518V50.6885H166.172ZM162.886 48.4142C162.86 49.0121 162.809 49.506 162.735 49.8957C162.66 50.2801 162.527 50.5444 162.336 50.6885H164.952V47.4772H162.934L162.886 48.4142Z" fill="white"/>
<path d="M169.006 51.2251C168.602 51.2251 168.238 51.1343 167.913 50.9528C167.589 50.7659 167.334 50.5097 167.148 50.184C166.962 49.8583 166.868 49.4899 166.868 49.0789C166.868 48.6678 166.962 48.2994 167.148 47.9737C167.334 47.6481 167.589 47.3945 167.913 47.213C168.238 47.0314 168.602 46.9407 169.006 46.9407C169.41 46.9407 169.774 47.0314 170.098 47.213C170.423 47.3945 170.675 47.6481 170.856 47.9737C171.042 48.2994 171.135 48.6678 171.135 49.0789C171.135 49.4899 171.042 49.8583 170.856 50.184C170.675 50.5097 170.423 50.7659 170.098 50.9528C169.774 51.1343 169.41 51.2251 169.006 51.2251ZM169.006 50.7205C169.303 50.7205 169.569 50.6538 169.803 50.5203C170.042 50.3815 170.229 50.1867 170.361 49.9357C170.494 49.6848 170.561 49.3992 170.561 49.0789C170.561 48.7585 170.494 48.4729 170.361 48.222C170.229 47.9711 170.042 47.7789 169.803 47.6454C169.569 47.5066 169.303 47.4372 169.006 47.4372C168.708 47.4372 168.44 47.5066 168.2 47.6454C167.966 47.7789 167.78 47.9711 167.642 48.222C167.509 48.4729 167.443 48.7585 167.443 49.0789C167.443 49.3992 167.509 49.6848 167.642 49.9357C167.78 50.1867 167.966 50.3815 168.2 50.5203C168.44 50.6538 168.708 50.7205 169.006 50.7205Z" fill="white"/>
<path d="M175.017 49.0068C175.586 49.1403 175.87 49.4846 175.87 50.0398C175.87 50.4082 175.734 50.6912 175.463 50.8887C175.192 51.0863 174.788 51.185 174.251 51.185H172.345V46.9727H174.195C174.674 46.9727 175.049 47.0661 175.32 47.253C175.591 47.4398 175.727 47.7068 175.727 48.0538C175.727 48.2834 175.663 48.4809 175.535 48.6464C175.413 48.8066 175.24 48.9267 175.017 49.0068ZM172.895 48.8466H174.155C174.48 48.8466 174.727 48.7852 174.897 48.6624C175.073 48.5396 175.16 48.3608 175.16 48.1259C175.16 47.891 175.073 47.7148 174.897 47.5973C174.727 47.4799 174.48 47.4212 174.155 47.4212H172.895V48.8466ZM174.227 50.7366C174.589 50.7366 174.86 50.6778 175.041 50.5604C175.221 50.4429 175.312 50.2587 175.312 50.0078C175.312 49.7569 175.229 49.5727 175.065 49.4552C174.9 49.3325 174.639 49.2711 174.283 49.2711H172.895V50.7366H174.227Z" fill="white"/>
<path d="M181.956 49.0068C182.525 49.1403 182.809 49.4846 182.809 50.0398C182.809 50.4082 182.674 50.6912 182.402 50.8887C182.131 51.0863 181.727 51.185 181.19 51.185H179.284V46.9727H181.134C181.613 46.9727 181.988 47.0661 182.259 47.253C182.53 47.4398 182.666 47.7068 182.666 48.0538C182.666 48.2834 182.602 48.4809 182.474 48.6464C182.352 48.8066 182.179 48.9267 181.956 49.0068ZM179.835 48.8466H181.095C181.419 48.8466 181.666 48.7852 181.836 48.6624C182.012 48.5396 182.099 48.3608 182.099 48.1259C182.099 47.891 182.012 47.7148 181.836 47.5973C181.666 47.4799 181.419 47.4212 181.095 47.4212H179.835V48.8466ZM181.166 50.7366C181.528 50.7366 181.799 50.6778 181.98 50.5604C182.161 50.4429 182.251 50.2587 182.251 50.0078C182.251 49.7569 182.168 49.5727 182.004 49.4552C181.839 49.3325 181.578 49.2711 181.222 49.2711H179.835V50.7366H181.166Z" fill="white"/>
<path d="M189.19 47.4772H186.79V51.185H186.223V46.9727H189.19V47.4772Z" fill="white"/>
<path d="M191.544 51.2251C191.14 51.2251 190.776 51.1343 190.452 50.9528C190.127 50.7659 189.872 50.5097 189.686 50.184C189.5 49.8583 189.407 49.4899 189.407 49.0789C189.407 48.6678 189.5 48.2994 189.686 47.9737C189.872 47.6481 190.127 47.3945 190.452 47.213C190.776 47.0314 191.14 46.9407 191.544 46.9407C191.948 46.9407 192.312 47.0314 192.637 47.213C192.961 47.3945 193.214 47.6481 193.394 47.9737C193.58 48.2994 193.673 48.6678 193.673 49.0789C193.673 49.4899 193.58 49.8583 193.394 50.184C193.214 50.5097 192.961 50.7659 192.637 50.9528C192.312 51.1343 191.948 51.2251 191.544 51.2251ZM191.544 50.7205C191.842 50.7205 192.108 50.6538 192.342 50.5203C192.581 50.3815 192.767 50.1867 192.9 49.9357C193.033 49.6848 193.099 49.3992 193.099 49.0789C193.099 48.7585 193.033 48.4729 192.9 48.222C192.767 47.9711 192.581 47.7789 192.342 47.6454C192.108 47.5066 191.842 47.4372 191.544 47.4372C191.246 47.4372 190.978 47.5066 190.739 47.6454C190.505 47.7789 190.319 47.9711 190.18 48.222C190.047 48.4729 189.981 48.7585 189.981 49.0789C189.981 49.3992 190.047 49.6848 190.18 49.9357C190.319 50.1867 190.505 50.3815 190.739 50.5203C190.978 50.6538 191.246 50.7205 191.544 50.7205Z" fill="white"/>
<path d="M197.045 46.9407C197.438 46.9407 197.794 47.0314 198.113 47.213C198.432 47.3891 198.682 47.6401 198.863 47.9657C199.044 48.2914 199.134 48.6624 199.134 49.0789C199.134 49.5006 199.044 49.8743 198.863 50.2C198.682 50.5257 198.432 50.7793 198.113 50.9608C197.8 51.137 197.443 51.2251 197.045 51.2251C196.704 51.2251 196.396 51.1557 196.12 51.0168C195.848 50.8727 195.625 50.6645 195.45 50.3922V52.7386H194.884V46.9727H195.426V47.8056C195.596 47.5279 195.819 47.3144 196.096 47.1649C196.377 47.0154 196.694 46.9407 197.045 46.9407ZM197.005 50.7205C197.297 50.7205 197.563 50.6538 197.802 50.5203C198.042 50.3815 198.228 50.1867 198.361 49.9357C198.499 49.6848 198.568 49.3992 198.568 49.0789C198.568 48.7585 198.499 48.4756 198.361 48.23C198.228 47.9791 198.042 47.7842 197.802 47.6454C197.563 47.5066 197.297 47.4372 197.005 47.4372C196.707 47.4372 196.439 47.5066 196.199 47.6454C195.965 47.7842 195.779 47.9791 195.641 48.23C195.508 48.4756 195.442 48.7585 195.442 49.0789C195.442 49.3992 195.508 49.6848 195.641 49.9357C195.779 50.1867 195.965 50.3815 196.199 50.5203C196.439 50.6538 196.707 50.7205 197.005 50.7205Z" fill="white"/>
<path d="M202.113 48.4622C202.639 48.4676 203.041 48.585 203.317 48.8146C203.594 49.0442 203.732 49.3752 203.732 49.8076C203.732 50.2561 203.583 50.6004 203.285 50.8407C202.988 51.0809 202.562 51.1984 202.009 51.193L200.351 51.185V46.9727H200.917V48.4462L202.113 48.4622ZM204.434 46.9727H205V51.185H204.434V46.9727ZM201.978 50.7606C202.366 50.7659 202.658 50.6885 202.855 50.5283C203.057 50.3628 203.158 50.1226 203.158 49.8076C203.158 49.498 203.059 49.2684 202.863 49.1189C202.666 48.9694 202.371 48.892 201.978 48.8867L200.917 48.8706V50.7446L201.978 50.7606Z" fill="white"/>
</g>
</g>

</g></symbol><symbol id="logotype-mobile" viewBox="0 0 112 34"><g fill="none">
<g id="logotype" clip-path="url(#clip0_3305_267)">
<g id="logotype_2">
<path d="M12.4079 22.0551L15.3799 18.9097L18.7605 22.0551H24.5559L15.3427 12.9559L6.20386 22.0551H12.4079Z" fill="white"/>
<path d="M20.9154 7.45154L16.5317 11.9449L19.4294 14.9405L20.9154 13.4427L29.0513 21.6057C27.1938 26.5859 22.4386 30.1432 16.8289 30.1432C9.62184 30.1432 3.78929 24.2643 3.78929 17C3.82644 9.73568 9.65899 3.85683 16.8661 3.85683C23.2559 3.85683 28.6055 8.53744 29.6828 14.641L33.6207 18.8348C33.695 18.2357 33.7322 17.5991 33.7322 17C33.7322 12.4692 31.9861 8.20044 28.7912 4.98018C25.5963 1.75991 21.3612 0 16.8661 0C12.3338 0 8.13584 1.75991 4.94094 4.98018C1.74605 8.20044 0 12.4317 0 17C0 21.5683 1.74605 25.7996 4.94094 29.0198C8.13584 32.2401 12.3709 34 16.8661 34C21.3612 34 25.5963 32.2401 28.7912 29.0198C30.7602 27.0352 32.1719 24.6762 32.952 22.0925C33.1006 21.6432 33.212 21.1564 33.3235 20.707L29.9057 17.0749L20.9154 7.45154Z" fill="white"/>
<path d="M47.6485 10.9241H50.1287L48.7759 17.7799H52.9597L52.5588 19.7622H45.8948L47.6485 10.9241Z" fill="white"/>
<path d="M55.294 10.9241H57.7742L56.0205 19.7622H53.5403L55.294 10.9241Z" fill="white"/>
<path d="M61.6307 12.8559L61.2424 14.8002H65.113L64.7247 16.732H60.8666L60.2653 19.7622H57.7851L59.5388 10.9241H66.4032L66.0149 12.8559H61.6307Z" fill="white"/>
<path d="M69.63 12.8559L69.3419 14.3457H73.2376L72.8744 16.2143H68.9661L68.653 17.8304H73.2502L72.8493 19.7622H65.822L67.5757 10.9241H74.4402L74.0519 12.8559H69.63Z" fill="white"/>
<path d="M77.4575 12.9064H74.7643L75.1651 10.9241H83.0192L82.6183 12.9064H79.9377L78.5723 19.7622H76.0921L77.4575 12.9064Z" fill="white"/>
<path d="M86.8021 19.9389C85.9169 19.9389 85.1445 19.7748 84.4848 19.4465C83.8334 19.1183 83.3282 18.6595 82.9691 18.0703C82.6183 17.4811 82.443 16.8077 82.443 16.0502C82.443 15.0401 82.6726 14.1311 83.1319 13.323C83.5996 12.515 84.2468 11.8837 85.0735 11.4291C85.9086 10.9746 86.8564 10.7473 87.917 10.7473C88.8022 10.7473 89.5705 10.9115 90.2218 11.2397C90.8816 11.568 91.3868 12.0268 91.7375 12.616C92.0966 13.2052 92.2762 13.8785 92.2762 14.6361C92.2762 15.6462 92.0423 16.5552 91.5747 17.3633C91.1154 18.1713 90.4682 18.8026 89.6331 19.2572C88.8064 19.7117 87.8627 19.9389 86.8021 19.9389ZM87.0151 17.8683C87.5662 17.8683 88.0506 17.7294 88.4681 17.4517C88.8857 17.1739 89.2072 16.8035 89.4327 16.3406C89.6581 15.8692 89.7709 15.3516 89.7709 14.7876C89.7709 14.19 89.5872 13.7144 89.2197 13.3609C88.8606 12.9989 88.3554 12.818 87.704 12.818C87.1529 12.818 86.6685 12.9569 86.251 13.2346C85.8334 13.5124 85.5119 13.887 85.2864 14.3583C85.061 14.8213 84.9482 15.3347 84.9482 15.8987C84.9482 16.4963 85.1278 16.9761 85.4869 17.338C85.8543 17.6915 86.3637 17.8683 87.0151 17.8683Z" fill="white"/>
<path d="M96.9323 19.9389C96.1723 19.9389 95.5168 19.8127 94.9656 19.5602C94.4145 19.2992 93.9927 18.9289 93.7004 18.4491C93.4082 17.9693 93.262 17.4054 93.262 16.7572C93.262 16.4879 93.2954 16.1764 93.3622 15.8229L94.3393 10.9241H96.8195L95.855 15.785C95.8049 16.0376 95.7798 16.269 95.7798 16.4795C95.7798 17.4054 96.2642 17.8683 97.2329 17.8683C97.759 17.8683 98.1724 17.7084 98.473 17.3885C98.782 17.0603 99.0116 16.5258 99.162 15.785L100.126 10.9241H102.569L101.58 15.9366C101.045 18.6048 99.496 19.9389 96.9323 19.9389Z" fill="white"/>
<path d="M111.54 13.7397C111.54 14.5477 111.327 15.2463 110.901 15.8355C110.475 16.4163 109.878 16.8414 109.11 17.1108L110.6 19.7622H108.007L106.704 17.4138H105.452L104.988 19.7622H102.508L104.262 10.9241H108.007C109.126 10.9241 109.995 11.1724 110.613 11.669C111.231 12.1656 111.54 12.8559 111.54 13.7397ZM109.034 13.9796C109.034 13.6176 108.913 13.3483 108.671 13.1715C108.429 12.9863 108.091 12.8937 107.656 12.8937H106.354L105.828 15.482H107.306C107.857 15.482 108.283 15.3516 108.583 15.0906C108.884 14.8297 109.034 14.4593 109.034 13.9796Z" fill="white"/>
<path d="M47.5461 28.0956C47.244 28.0956 46.9695 28.0282 46.7226 27.8935C46.4786 27.7559 46.2869 27.5686 46.1475 27.3314C46.011 27.0943 45.9427 26.8278 45.9427 26.5321C45.9427 26.2364 46.011 25.97 46.1475 25.7329C46.2869 25.4957 46.4786 25.3098 46.7226 25.1751C46.9695 25.0375 47.244 24.9687 47.5461 24.9687C47.8482 24.9687 48.1198 25.0361 48.3609 25.1707C48.6049 25.3054 48.7966 25.4928 48.936 25.7329C49.0754 25.97 49.1451 26.2364 49.1451 26.5321C49.1451 26.8278 49.0754 27.0957 48.936 27.3358C48.7966 27.573 48.6049 27.7589 48.3609 27.8935C48.1198 28.0282 47.8482 28.0956 47.5461 28.0956ZM47.5461 27.8057C47.7872 27.8057 48.005 27.7515 48.1997 27.6432C48.3943 27.532 48.5468 27.3797 48.6572 27.1865C48.7675 26.9903 48.8227 26.7722 48.8227 26.5321C48.8227 26.2921 48.7675 26.0754 48.6572 25.8822C48.5468 25.686 48.3943 25.5338 48.1997 25.4255C48.005 25.3142 47.7872 25.2586 47.5461 25.2586C47.305 25.2586 47.0857 25.3142 46.8882 25.4255C46.6936 25.5338 46.5396 25.686 46.4264 25.8822C46.316 26.0754 46.2608 26.2921 46.2608 26.5321C46.2608 26.7722 46.316 26.9903 46.4264 27.1865C46.5396 27.3797 46.6936 27.532 46.8882 27.6432C47.0857 27.7515 47.305 27.8057 47.5461 27.8057Z" fill="white"/>
<path d="M51.0212 25.7417C51.2361 25.7417 51.4308 25.7914 51.605 25.891C51.7793 25.9876 51.9158 26.1252 52.0146 26.3038C52.1133 26.4824 52.1627 26.6859 52.1627 26.9142C52.1627 27.1455 52.1133 27.3504 52.0146 27.529C51.9158 27.7076 51.7793 27.8467 51.605 27.9462C51.4337 28.0429 51.239 28.0912 51.0212 28.0912C50.8353 28.0912 50.6668 28.0531 50.5158 27.977C50.3676 27.8979 50.2456 27.7837 50.1498 27.6344V28.9212H49.8404V25.7592H50.1367V26.216C50.2297 26.0637 50.3517 25.9466 50.5027 25.8646C50.6567 25.7826 50.8295 25.7417 51.0212 25.7417ZM50.9994 27.8145C51.1592 27.8145 51.3044 27.7779 51.4351 27.7047C51.5658 27.6286 51.6675 27.5217 51.7401 27.3841C51.8156 27.2465 51.8534 27.0899 51.8534 26.9142C51.8534 26.7385 51.8156 26.5834 51.7401 26.4487C51.6675 26.3111 51.5658 26.2042 51.4351 26.1281C51.3044 26.052 51.1592 26.0139 50.9994 26.0139C50.8367 26.0139 50.6901 26.052 50.5594 26.1281C50.4315 26.2042 50.3299 26.3111 50.2544 26.4487C50.1817 26.5834 50.1454 26.7385 50.1454 26.9142C50.1454 27.0899 50.1817 27.2465 50.2544 27.3841C50.3299 27.5217 50.4315 27.6286 50.5594 27.7047C50.6901 27.7779 50.8367 27.8145 50.9994 27.8145Z" fill="white"/>
<path d="M54.4482 26.0359H53.1367V28.0692H52.8274V25.7592H54.4482V26.0359Z" fill="white"/>
<path d="M55.6839 25.7417C55.983 25.7417 56.2125 25.8178 56.3723 25.97C56.532 26.1193 56.6119 26.3418 56.6119 26.6375V28.0692H56.3156V27.7091C56.2459 27.8291 56.1428 27.9228 56.0063 27.9902C55.8727 28.0575 55.7129 28.0912 55.527 28.0912C55.2714 28.0912 55.0681 28.0297 54.917 27.9067C54.766 27.7837 54.6905 27.6213 54.6905 27.4192C54.6905 27.2231 54.7602 27.065 54.8996 26.945C55.0419 26.8249 55.267 26.7649 55.5749 26.7649H56.3026V26.6244C56.3026 26.4253 56.2474 26.2745 56.137 26.172C56.0266 26.0666 55.8654 26.0139 55.6534 26.0139C55.5081 26.0139 55.3687 26.0388 55.2351 26.0886C55.1015 26.1354 54.9867 26.2013 54.8909 26.2862L54.7515 26.0535C54.8677 25.9539 55.0071 25.8778 55.1697 25.8251C55.3324 25.7695 55.5038 25.7417 55.6839 25.7417ZM55.5749 27.8452C55.7492 27.8452 55.8988 27.8057 56.0237 27.7267C56.1486 27.6447 56.2416 27.5276 56.3026 27.3753V26.9977H55.5837C55.1915 26.9977 54.9955 27.1353 54.9955 27.4105C54.9955 27.5451 55.0463 27.652 55.148 27.731C55.2496 27.8072 55.3919 27.8452 55.5749 27.8452Z" fill="white"/>
<path d="M57.4354 25.7592H57.7448V26.7825H59.1869V25.7592H59.4963V28.0692H59.1869V27.0504H57.7448V28.0692H57.4354V25.7592Z" fill="white"/>
<path d="M60.3755 25.7592H60.6849V27.5949L62.2142 25.7592H62.4887V28.0692H62.1793V26.2335L60.6544 28.0692H60.3755V25.7592Z" fill="white"/>
<path d="M64.4438 26.8659C64.6065 26.904 64.7314 26.9698 64.8185 27.0635C64.9086 27.1572 64.9536 27.2714 64.9536 27.4061C64.9536 27.5407 64.9071 27.6608 64.8142 27.7662C64.7241 27.8716 64.6007 27.9536 64.4438 28.0121C64.287 28.0677 64.1141 28.0956 63.9253 28.0956C63.7598 28.0956 63.5971 28.0721 63.4374 28.0253C63.2776 27.9755 63.1382 27.9038 63.0191 27.8101L63.1236 27.5773C63.2282 27.6564 63.3502 27.7179 63.4896 27.7618C63.6291 27.8057 63.7699 27.8277 63.9123 27.8277C64.1243 27.8277 64.2971 27.7881 64.4307 27.7091C64.5673 27.6271 64.6355 27.5173 64.6355 27.3797C64.6355 27.2568 64.5803 27.1616 64.47 27.0943C64.3596 27.024 64.2085 26.9889 64.0168 26.9889H63.6247V26.7605H63.9994C64.1708 26.7605 64.3088 26.7283 64.4133 26.6639C64.5179 26.5966 64.5702 26.5073 64.5702 26.396C64.5702 26.273 64.5106 26.1764 64.3915 26.1062C64.2754 26.0359 64.1228 26.0008 63.934 26.0008C63.6872 26.0008 63.4432 26.0637 63.2021 26.1896L63.1149 25.9481C63.388 25.8046 63.6712 25.7329 63.9645 25.7329C64.1388 25.7329 64.2957 25.7592 64.4351 25.8119C64.5774 25.8617 64.6878 25.9334 64.7662 26.0271C64.8476 26.1208 64.8882 26.2291 64.8882 26.3521C64.8882 26.4692 64.8476 26.5731 64.7662 26.6639C64.6878 26.7547 64.5803 26.822 64.4438 26.8659Z" fill="white"/>
<path d="M66.4445 25.7417C66.7436 25.7417 66.9731 25.8178 67.1329 25.97C67.2926 26.1193 67.3725 26.3418 67.3725 26.6375V28.0692H67.0762V27.7091C67.0065 27.8291 66.9034 27.9228 66.7669 27.9902C66.6333 28.0575 66.4735 28.0912 66.2876 28.0912C66.032 28.0912 65.8287 28.0297 65.6776 27.9067C65.5266 27.7837 65.4511 27.6213 65.4511 27.4192C65.4511 27.2231 65.5208 27.065 65.6602 26.945C65.8025 26.8249 66.0276 26.7649 66.3355 26.7649H67.0632V26.6244C67.0632 26.4253 67.008 26.2745 66.8976 26.172C66.7872 26.0666 66.626 26.0139 66.414 26.0139C66.2687 26.0139 66.1293 26.0388 65.9957 26.0886C65.8621 26.1354 65.7473 26.2013 65.6515 26.2862L65.5121 26.0535C65.6283 25.9539 65.7677 25.8778 65.9303 25.8251C66.093 25.7695 66.2644 25.7417 66.4445 25.7417ZM66.3355 27.8452C66.5098 27.8452 66.6594 27.8057 66.7843 27.7267C66.9092 27.6447 67.0022 27.5276 67.0632 27.3753V26.9977H66.3443C65.9521 26.9977 65.7561 27.1353 65.7561 27.4105C65.7561 27.5451 65.8069 27.652 65.9086 27.731C66.0102 27.8072 66.1525 27.8452 66.3355 27.8452Z" fill="white"/>
<path d="M70.5836 27.7969V28.6489H70.2917V28.0692H68.196V25.7592H68.5054V27.7969H69.904V25.7592H70.2133V27.7969H70.5836Z" fill="white"/>
<path d="M71.1744 25.7592H71.4838V27.5949L73.0131 25.7592H73.2876V28.0692H72.9782V26.2335L71.4533 28.0692H71.1744V25.7592Z" fill="white"/>
<path d="M75.9343 25.7592V28.0692H75.6511V27.3051H74.8451L74.3135 28.0692H73.9781L74.5488 27.2611C74.3716 27.2114 74.2351 27.1265 74.1393 27.0064C74.0434 26.8864 73.9955 26.7342 73.9955 26.5497C73.9955 26.2921 74.0826 26.0959 74.2569 25.9612C74.4312 25.8266 74.6694 25.7592 74.9715 25.7592H75.9343ZM74.3092 26.5585C74.3092 26.901 74.5256 27.0723 74.9584 27.0723H75.6511V26.0359H74.9802C74.5328 26.0359 74.3092 26.2101 74.3092 26.5585Z" fill="white"/>
<path d="M80.0132 25.7592V28.0692H79.7039V26.0359H78.2661V28.0692H77.9567V25.7592H80.0132Z" fill="white"/>
<path d="M81.8381 28.0912C81.6173 28.0912 81.4183 28.0414 81.2411 27.9418C81.064 27.8394 80.9245 27.6988 80.8229 27.5203C80.7212 27.3417 80.6704 27.1396 80.6704 26.9142C80.6704 26.6888 80.7212 26.4868 80.8229 26.3082C80.9245 26.1296 81.064 25.9905 81.2411 25.891C81.4183 25.7914 81.6173 25.7417 81.8381 25.7417C82.0588 25.7417 82.2578 25.7914 82.435 25.891C82.6121 25.9905 82.7501 26.1296 82.8489 26.3082C82.9505 26.4868 83.0014 26.6888 83.0014 26.9142C83.0014 27.1396 82.9505 27.3417 82.8489 27.5203C82.7501 27.6988 82.6121 27.8394 82.435 27.9418C82.2578 28.0414 82.0588 28.0912 81.8381 28.0912ZM81.8381 27.8145C82.0007 27.8145 82.1459 27.7779 82.2738 27.7047C82.4045 27.6286 82.5061 27.5217 82.5788 27.3841C82.6514 27.2465 82.6877 27.0899 82.6877 26.9142C82.6877 26.7385 82.6514 26.5819 82.5788 26.4443C82.5061 26.3067 82.4045 26.2013 82.2738 26.1281C82.1459 26.052 82.0007 26.0139 81.8381 26.0139C81.6754 26.0139 81.5287 26.052 81.398 26.1281C81.2702 26.2013 81.1685 26.3067 81.093 26.4443C81.0204 26.5819 80.9841 26.7385 80.9841 26.9142C80.9841 27.0899 81.0204 27.2465 81.093 27.3841C81.1685 27.5217 81.2702 27.6286 81.398 27.7047C81.5287 27.7779 81.6754 27.8145 81.8381 27.8145Z" fill="white"/>
<path d="M85.0151 28.0692L84.2875 27.1031L83.5555 28.0692H83.207L84.1132 26.8835L83.2505 25.7592H83.5991L84.2875 26.6639L84.9759 25.7592H85.3158L84.4531 26.8835L85.368 28.0692H85.0151Z" fill="white"/>
<path d="M86.7397 28.0912C86.5189 28.0912 86.32 28.0414 86.1428 27.9418C85.9656 27.8394 85.8262 27.6988 85.7245 27.5203C85.6228 27.3417 85.572 27.1396 85.572 26.9142C85.572 26.6888 85.6228 26.4868 85.7245 26.3082C85.8262 26.1296 85.9656 25.9905 86.1428 25.891C86.32 25.7914 86.5189 25.7417 86.7397 25.7417C86.9604 25.7417 87.1594 25.7914 87.3366 25.891C87.5138 25.9905 87.6517 26.1296 87.7505 26.3082C87.8522 26.4868 87.903 26.6888 87.903 26.9142C87.903 27.1396 87.8522 27.3417 87.7505 27.5203C87.6517 27.6988 87.5138 27.8394 87.3366 27.9418C87.1594 28.0414 86.9604 28.0912 86.7397 28.0912ZM86.7397 27.8145C86.9023 27.8145 87.0476 27.7779 87.1754 27.7047C87.3061 27.6286 87.4078 27.5217 87.4804 27.3841C87.553 27.2465 87.5893 27.0899 87.5893 26.9142C87.5893 26.7385 87.553 26.5819 87.4804 26.4443C87.4078 26.3067 87.3061 26.2013 87.1754 26.1281C87.0476 26.052 86.9023 26.0139 86.7397 26.0139C86.577 26.0139 86.4303 26.052 86.2996 26.1281C86.1718 26.2013 86.0702 26.3067 85.9946 26.4443C85.922 26.5819 85.8857 26.7385 85.8857 26.9142C85.8857 27.0899 85.922 27.2465 85.9946 27.3841C86.0702 27.5217 86.1718 27.6286 86.2996 27.7047C86.4303 27.7779 86.577 27.8145 86.7397 27.8145Z" fill="white"/>
<path d="M90.7865 27.7969V28.6269H90.4946V28.0692H88.4425V28.6269H88.1505V27.7969H88.2812C88.4352 27.7881 88.5398 27.674 88.5949 27.4544C88.6501 27.2348 88.6879 26.9274 88.7082 26.5321L88.7387 25.7592H90.4292V27.7969H90.7865ZM88.9914 26.5497C88.9769 26.8776 88.9493 27.1484 88.9087 27.3622C88.868 27.573 88.7954 27.7179 88.6908 27.7969H90.1199V26.0359H89.0176L88.9914 26.5497Z" fill="white"/>
<path d="M92.3349 28.0912C92.1141 28.0912 91.9151 28.0414 91.7379 27.9418C91.5608 27.8394 91.4213 27.6988 91.3197 27.5203C91.218 27.3417 91.1672 27.1396 91.1672 26.9142C91.1672 26.6888 91.218 26.4868 91.3197 26.3082C91.4213 26.1296 91.5608 25.9905 91.7379 25.891C91.9151 25.7914 92.1141 25.7417 92.3349 25.7417C92.5556 25.7417 92.7546 25.7914 92.9318 25.891C93.1089 25.9905 93.2469 26.1296 93.3457 26.3082C93.4473 26.4868 93.4982 26.6888 93.4982 26.9142C93.4982 27.1396 93.4473 27.3417 93.3457 27.5203C93.2469 27.6988 93.1089 27.8394 92.9318 27.9418C92.7546 28.0414 92.5556 28.0912 92.3349 28.0912ZM92.3349 27.8145C92.4975 27.8145 92.6427 27.7779 92.7705 27.7047C92.9013 27.6286 93.0029 27.5217 93.0755 27.3841C93.1482 27.2465 93.1845 27.0899 93.1845 26.9142C93.1845 26.7385 93.1482 26.5819 93.0755 26.4443C93.0029 26.3067 92.9013 26.2013 92.7705 26.1281C92.6427 26.052 92.4975 26.0139 92.3349 26.0139C92.1722 26.0139 92.0255 26.052 91.8948 26.1281C91.767 26.2013 91.6653 26.3067 91.5898 26.4443C91.5172 26.5819 91.4809 26.7385 91.4809 26.9142C91.4809 27.0899 91.5172 27.2465 91.5898 27.3841C91.6653 27.5217 91.767 27.6286 91.8948 27.7047C92.0255 27.7779 92.1722 27.8145 92.3349 27.8145Z" fill="white"/>
<path d="M95.6189 26.8747C95.9297 26.9479 96.0851 27.1367 96.0851 27.4412C96.0851 27.6432 96.011 27.7984 95.8629 27.9067C95.7148 28.015 95.494 28.0692 95.2006 28.0692H94.1593V25.7592H95.1701C95.4316 25.7592 95.6363 25.8105 95.7845 25.9129C95.9326 26.0154 96.0067 26.1618 96.0067 26.3521C96.0067 26.478 95.9718 26.5863 95.9021 26.6771C95.8353 26.7649 95.7409 26.8308 95.6189 26.8747ZM94.4599 26.7869H95.1483C95.3255 26.7869 95.4606 26.7532 95.5536 26.6859C95.6494 26.6185 95.6973 26.5204 95.6973 26.3916C95.6973 26.2628 95.6494 26.1662 95.5536 26.1018C95.4606 26.0374 95.3255 26.0052 95.1483 26.0052H94.4599V26.7869ZM95.1876 27.8233C95.3851 27.8233 95.5332 27.7911 95.632 27.7267C95.7307 27.6622 95.7801 27.5612 95.7801 27.4236C95.7801 27.286 95.7351 27.185 95.645 27.1206C95.555 27.0533 95.4127 27.0196 95.2181 27.0196H94.4599V27.8233H95.1876Z" fill="white"/>
<path d="M99.41 26.8747C99.7208 26.9479 99.8762 27.1367 99.8762 27.4412C99.8762 27.6432 99.8021 27.7984 99.654 27.9067C99.5059 28.015 99.2851 28.0692 98.9917 28.0692H97.9504V25.7592H98.9612C99.2227 25.7592 99.4274 25.8105 99.5756 25.9129C99.7237 26.0154 99.7978 26.1618 99.7978 26.3521C99.7978 26.478 99.7629 26.5863 99.6932 26.6771C99.6264 26.7649 99.532 26.8308 99.41 26.8747ZM98.251 26.7869H98.9394C99.1166 26.7869 99.2517 26.7532 99.3447 26.6859C99.4405 26.6185 99.4884 26.5204 99.4884 26.3916C99.4884 26.2628 99.4405 26.1662 99.3447 26.1018C99.2517 26.0374 99.1166 26.0052 98.9394 26.0052H98.251V26.7869ZM98.9787 27.8233C99.1762 27.8233 99.3243 27.7911 99.4231 27.7267C99.5218 27.6622 99.5712 27.5612 99.5712 27.4236C99.5712 27.286 99.5262 27.185 99.4361 27.1206C99.3461 27.0533 99.2038 27.0196 99.0092 27.0196H98.251V27.8233H98.9787Z" fill="white"/>
<path d="M103.362 26.0359H102.051V28.0692H101.742V25.7592H103.362V26.0359Z" fill="white"/>
<path d="M104.648 28.0912C104.428 28.0912 104.229 28.0414 104.052 27.9418C103.874 27.8394 103.735 27.6988 103.633 27.5203C103.532 27.3417 103.481 27.1396 103.481 26.9142C103.481 26.6888 103.532 26.4868 103.633 26.3082C103.735 26.1296 103.874 25.9905 104.052 25.891C104.229 25.7914 104.428 25.7417 104.648 25.7417C104.869 25.7417 105.068 25.7914 105.245 25.891C105.423 25.9905 105.561 26.1296 105.659 26.3082C105.761 26.4868 105.812 26.6888 105.812 26.9142C105.812 27.1396 105.761 27.3417 105.659 27.5203C105.561 27.6988 105.423 27.8394 105.245 27.9418C105.068 28.0414 104.869 28.0912 104.648 28.0912ZM104.648 27.8145C104.811 27.8145 104.956 27.7779 105.084 27.7047C105.215 27.6286 105.317 27.5217 105.389 27.3841C105.462 27.2465 105.498 27.0899 105.498 26.9142C105.498 26.7385 105.462 26.5819 105.389 26.4443C105.317 26.3067 105.215 26.2013 105.084 26.1281C104.956 26.052 104.811 26.0139 104.648 26.0139C104.486 26.0139 104.339 26.052 104.208 26.1281C104.081 26.2013 103.979 26.3067 103.903 26.4443C103.831 26.5819 103.795 26.7385 103.795 26.9142C103.795 27.0899 103.831 27.2465 103.903 27.3841C103.979 27.5217 104.081 27.6286 104.208 27.7047C104.339 27.7779 104.486 27.8145 104.648 27.8145Z" fill="white"/>
<path d="M107.654 25.7417C107.869 25.7417 108.063 25.7914 108.238 25.891C108.412 25.9876 108.548 26.1252 108.647 26.3038C108.746 26.4824 108.795 26.6859 108.795 26.9142C108.795 27.1455 108.746 27.3504 108.647 27.529C108.548 27.7076 108.412 27.8467 108.238 27.9462C108.066 28.0429 107.872 28.0912 107.654 28.0912C107.468 28.0912 107.299 28.0531 107.148 27.977C107 27.8979 106.878 27.7837 106.782 27.6344V28.9212H106.473V25.7592H106.769V26.216C106.862 26.0637 106.984 25.9466 107.135 25.8646C107.289 25.7826 107.462 25.7417 107.654 25.7417ZM107.632 27.8145C107.792 27.8145 107.937 27.7779 108.068 27.7047C108.198 27.6286 108.3 27.5217 108.373 27.3841C108.448 27.2465 108.486 27.0899 108.486 26.9142C108.486 26.7385 108.448 26.5834 108.373 26.4487C108.3 26.3111 108.198 26.2042 108.068 26.1281C107.937 26.052 107.792 26.0139 107.632 26.0139C107.469 26.0139 107.323 26.052 107.192 26.1281C107.064 26.2042 106.962 26.3111 106.887 26.4487C106.814 26.5834 106.778 26.7385 106.778 26.9142C106.778 27.0899 106.814 27.2465 106.887 27.3841C106.962 27.5217 107.064 27.6286 107.192 27.7047C107.323 27.7779 107.469 27.8145 107.632 27.8145Z" fill="white"/>
<path d="M110.423 26.5761C110.71 26.579 110.93 26.6434 111.081 26.7693C111.232 26.8952 111.307 27.0767 111.307 27.3138C111.307 27.5598 111.226 27.7486 111.063 27.8804C110.901 28.0121 110.668 28.0765 110.366 28.0736L109.46 28.0692V25.7592H109.769V26.5673L110.423 26.5761ZM111.691 25.7592H112V28.0692H111.691V25.7592ZM110.349 27.8364C110.561 27.8394 110.72 27.7969 110.828 27.7091C110.938 27.6183 110.994 27.4866 110.994 27.3138C110.994 27.144 110.94 27.0181 110.832 26.9362C110.725 26.8542 110.564 26.8117 110.349 26.8088L109.769 26.8V27.8277L110.349 27.8364Z" fill="white"/>
</g>
</g>

</g></symbol><symbol id="logotype-tablet" viewBox="0 0 144 44"><g fill="none">
<g id="logotype" clip-path="url(#clip0_3305_95)">
<g id="logotype_2">
<path d="M15.953 28.5418L19.7742 24.4714L24.1207 28.5418H31.5719L19.7264 16.7665L7.97639 28.5418H15.953Z" fill="white"/>
<path d="M26.8913 9.64317L21.2551 15.4581L24.9807 19.3348L26.8913 17.3965L37.3516 27.9604C34.9634 34.4053 28.8496 39.0088 21.6372 39.0088C12.3709 39.0088 4.87195 31.4009 4.87195 22C4.91971 12.5991 12.4187 4.99119 21.685 4.99119C29.9004 4.99119 36.7784 11.0485 38.1636 18.9471L43.2266 24.3744C43.3221 23.5991 43.3699 22.7753 43.3699 22C43.3699 16.1366 41.125 10.6123 37.0173 6.44493C32.9095 2.27753 27.4644 0 21.685 0C15.8577 0 10.4604 2.27753 6.35264 6.44493C2.24492 10.6123 0 16.0881 0 22C0 27.9119 2.24492 33.3877 6.35264 37.5551C10.4604 41.7225 15.9055 44 21.685 44C27.4644 44 32.9095 41.7225 37.0173 37.5551C39.5488 34.9868 41.3638 31.9339 42.3669 28.5903C42.5579 28.0088 42.7012 27.3789 42.8445 26.7974L38.4502 22.0969L26.8913 9.64317Z" fill="white"/>
<path d="M61.2624 14.1371H64.4512L62.7118 23.0093H68.091L67.5757 25.5746H59.0076L61.2624 14.1371Z" fill="white"/>
<path d="M71.0923 14.1371H74.2811L72.0264 25.5746H68.8375L71.0923 14.1371Z" fill="white"/>
<path d="M79.2394 16.637L78.7402 19.1532H83.7167L83.2175 21.6532H78.257L77.484 25.5746H74.2951L76.5499 14.1371H85.3756L84.8763 16.637H79.2394Z" fill="white"/>
<path d="M89.5243 16.637L89.1539 18.565H94.1627L93.6956 20.9832H88.6708L88.2681 23.0747H94.1788L93.6634 25.5746H84.6283L86.8831 14.1371H95.7088L95.2095 16.637H89.5243Z" fill="white"/>
<path d="M99.5882 16.7023H96.1255L96.6409 14.1371H106.739L106.224 16.7023H102.777L101.022 25.5746H97.8327L99.5882 16.7023Z" fill="white"/>
<path d="M111.603 25.8033C110.465 25.8033 109.471 25.5909 108.623 25.1661C107.786 24.7413 107.136 24.1476 106.675 23.3851C106.224 22.6226 105.998 21.7512 105.998 20.7708C105.998 19.4637 106.293 18.2873 106.884 17.2415C107.485 16.1958 108.317 15.3789 109.38 14.7906C110.454 14.2024 111.673 13.9083 113.036 13.9083C114.174 13.9083 115.162 14.1207 116 14.5456C116.848 14.9704 117.497 15.564 117.948 16.3265C118.41 17.089 118.641 17.9605 118.641 18.9408C118.641 20.248 118.34 21.4244 117.739 22.4701C117.148 23.5158 116.316 24.3328 115.243 24.921C114.18 25.5092 112.966 25.8033 111.603 25.8033ZM111.877 23.1237C112.585 23.1237 113.208 22.944 113.745 22.5845C114.282 22.225 114.695 21.7457 114.985 21.1466C115.275 20.5366 115.42 19.8667 115.42 19.1369C115.42 18.3635 115.184 17.7481 114.711 17.2906C114.249 16.8222 113.6 16.588 112.762 16.588C112.054 16.588 111.431 16.7677 110.894 17.1272C110.357 17.4866 109.944 17.9714 109.654 18.5814C109.364 19.1805 109.219 19.8449 109.219 20.5748C109.219 21.3482 109.45 21.969 109.912 22.4374C110.384 22.8949 111.039 23.1237 111.877 23.1237Z" fill="white"/>
<path d="M124.627 25.8033C123.65 25.8033 122.807 25.64 122.099 25.3132C121.39 24.9755 120.848 24.4962 120.472 23.8753C120.096 23.2544 119.908 22.5246 119.908 21.6858C119.908 21.3373 119.951 20.9342 120.037 20.4767L121.293 14.1371H124.482L123.242 20.4277C123.178 20.7545 123.146 21.054 123.146 21.3264C123.146 22.5246 123.768 23.1237 125.014 23.1237C125.69 23.1237 126.222 22.9167 126.608 22.5028C127.005 22.078 127.301 21.3863 127.494 20.4277L128.734 14.1371H131.875L130.602 20.6238C129.915 24.0768 127.923 25.8033 124.627 25.8033Z" fill="white"/>
<path d="M143.408 17.7807C143.408 18.8265 143.134 19.7306 142.587 20.4931C142.039 21.2447 141.272 21.7948 140.284 22.1433L142.2 25.5746H138.866L137.191 22.5355H135.581L134.985 25.5746H131.796L134.051 14.1371H138.866C140.305 14.1371 141.422 14.4584 142.216 15.1011C143.011 15.7438 143.408 16.637 143.408 17.7807ZM140.187 18.0912C140.187 17.6228 140.031 17.2742 139.72 17.0455C139.409 16.8058 138.974 16.686 138.415 16.686H136.741L136.064 20.0356H137.965C138.673 20.0356 139.221 19.8667 139.607 19.529C139.994 19.1914 140.187 18.7121 140.187 18.0912Z" fill="white"/>
<path d="M61.1307 36.359C60.7423 36.359 60.3894 36.2718 60.072 36.0975C59.7583 35.9194 59.5118 35.677 59.3325 35.3701C59.157 35.0632 59.0692 34.7184 59.0692 34.3357C59.0692 33.953 59.157 33.6083 59.3325 33.3014C59.5118 32.9945 59.7583 32.7539 60.072 32.5796C60.3894 32.4015 60.7423 32.3125 61.1307 32.3125C61.5191 32.3125 61.8683 32.3996 62.1783 32.5739C62.492 32.7482 62.7385 32.9907 62.9177 33.3014C63.097 33.6083 63.1866 33.953 63.1866 34.3357C63.1866 34.7184 63.097 35.0651 62.9177 35.3758C62.7385 35.6826 62.492 35.9232 62.1783 36.0975C61.8683 36.2718 61.5191 36.359 61.1307 36.359ZM61.1307 35.9839C61.4407 35.9839 61.7208 35.9138 61.971 35.7736C62.2212 35.6296 62.4173 35.4326 62.5592 35.1825C62.7011 34.9287 62.7721 34.6464 62.7721 34.3357C62.7721 34.025 62.7011 33.7447 62.5592 33.4946C62.4173 33.2407 62.2212 33.0437 61.971 32.9035C61.7208 32.7596 61.4407 32.6876 61.1307 32.6876C60.8207 32.6876 60.5388 32.7596 60.2848 32.9035C60.0346 33.0437 59.8367 33.2407 59.691 33.4946C59.5491 33.7447 59.4782 34.025 59.4782 34.3357C59.4782 34.6464 59.5491 34.9287 59.691 35.1825C59.8367 35.4326 60.0346 35.6296 60.2848 35.7736C60.5388 35.9138 60.8207 35.9839 61.1307 35.9839Z" fill="white"/>
<path d="M65.5987 33.3127C65.875 33.3127 66.1253 33.3771 66.3493 33.506C66.5734 33.631 66.7489 33.8091 66.8759 34.0402C67.0029 34.2713 67.0664 34.5346 67.0664 34.8302C67.0664 35.1295 67.0029 35.3947 66.8759 35.6258C66.7489 35.8569 66.5734 36.0369 66.3493 36.1657C66.129 36.2908 65.8788 36.3533 65.5987 36.3533C65.3597 36.3533 65.1431 36.304 64.9489 36.2055C64.7584 36.1032 64.6015 35.9554 64.4783 35.7622V37.4274H64.0806V33.3355H64.4615V33.9265C64.581 33.7295 64.7379 33.578 64.9321 33.4719C65.13 33.3658 65.3522 33.3127 65.5987 33.3127ZM65.5707 35.9952C65.7761 35.9952 65.9628 35.9479 66.1309 35.8531C66.2989 35.7546 66.4296 35.6163 66.523 35.4383C66.6201 35.2602 66.6686 35.0575 66.6686 34.8302C66.6686 34.6028 66.6201 34.402 66.523 34.2277C66.4296 34.0497 66.2989 33.9114 66.1309 33.8129C65.9628 33.7144 65.7761 33.6651 65.5707 33.6651C65.3615 33.6651 65.1729 33.7144 65.0049 33.8129C64.8406 33.9114 64.7099 34.0497 64.6128 34.2277C64.5194 34.402 64.4727 34.6028 64.4727 34.8302C64.4727 35.0575 64.5194 35.2602 64.6128 35.4383C64.7099 35.6163 64.8406 35.7546 65.0049 35.8531C65.1729 35.9479 65.3615 35.9952 65.5707 35.9952Z" fill="white"/>
<path d="M70.0048 33.6935H68.3186V36.3249H67.9209V33.3355H70.0048V33.6935Z" fill="white"/>
<path d="M71.5935 33.3127C71.9782 33.3127 72.2732 33.4112 72.4786 33.6083C72.684 33.8015 72.7867 34.0894 72.7867 34.4721V36.3249H72.4058V35.8588C72.3162 36.0142 72.1836 36.1354 72.0081 36.2226C71.8363 36.3097 71.6309 36.3533 71.3919 36.3533C71.0632 36.3533 70.8018 36.2737 70.6076 36.1146C70.4134 35.9554 70.3163 35.7452 70.3163 35.4837C70.3163 35.2299 70.406 35.0253 70.5852 34.8699C70.7682 34.7146 71.0576 34.6369 71.4535 34.6369H72.389V34.4551C72.389 34.1974 72.318 34.0023 72.1761 33.8697C72.0342 33.7333 71.827 33.6651 71.5543 33.6651C71.3676 33.6651 71.1883 33.6973 71.0165 33.7617C70.8448 33.8223 70.6973 33.9076 70.574 34.0175L70.3947 33.7162C70.5441 33.5874 70.7234 33.4889 70.9325 33.4207C71.1417 33.3487 71.362 33.3127 71.5935 33.3127ZM71.4535 36.035C71.6776 36.035 71.8699 35.9839 72.0305 35.8816C72.1911 35.7755 72.3106 35.6239 72.389 35.4269V34.9381H71.4647C70.9605 34.9381 70.7084 35.1162 70.7084 35.4724C70.7084 35.6467 70.7738 35.7849 70.9045 35.8872C71.0352 35.9858 71.2182 36.035 71.4535 36.035Z" fill="white"/>
<path d="M73.8455 33.3355H74.2433V34.6597H76.0975V33.3355H76.4952V36.3249H76.0975V35.0063H74.2433V36.3249H73.8455V33.3355Z" fill="white"/>
<path d="M77.6257 33.3355H78.0234V35.7111L79.9897 33.3355H80.3426V36.3249H79.9449V33.9493L77.9842 36.3249H77.6257V33.3355Z" fill="white"/>
<path d="M82.8563 34.7676C83.0655 34.8169 83.2261 34.9021 83.3381 35.0234C83.4539 35.1446 83.5118 35.2924 83.5118 35.4667C83.5118 35.641 83.452 35.7963 83.3325 35.9327C83.2167 36.0691 83.058 36.1752 82.8563 36.251C82.6547 36.323 82.4325 36.359 82.1897 36.359C81.9768 36.359 81.7677 36.3286 81.5623 36.268C81.3569 36.2036 81.1777 36.1108 81.0245 35.9895L81.159 35.6883C81.2934 35.7906 81.4503 35.8702 81.6295 35.927C81.8088 35.9839 81.9899 36.0123 82.1729 36.0123C82.4455 36.0123 82.6677 35.9611 82.8395 35.8588C83.0151 35.7527 83.1028 35.6107 83.1028 35.4326C83.1028 35.2735 83.0319 35.1503 82.89 35.0632C82.748 34.9722 82.5538 34.9268 82.3074 34.9268H81.8032V34.6312H82.285C82.5053 34.6312 82.6827 34.5896 82.8171 34.5062C82.9516 34.4191 83.0188 34.3035 83.0188 34.1595C83.0188 34.0004 82.9422 33.8754 82.7891 33.7844C82.6397 33.6935 82.4437 33.648 82.2009 33.648C81.8835 33.648 81.5698 33.7295 81.2598 33.8924L81.1478 33.5798C81.4988 33.3942 81.8629 33.3014 82.2401 33.3014C82.4642 33.3014 82.6659 33.3355 82.8451 33.4037C83.0281 33.4681 83.17 33.5609 83.2709 33.6821C83.3754 33.8034 83.4277 33.9436 83.4277 34.1027C83.4277 34.2543 83.3754 34.3888 83.2709 34.5062C83.17 34.6237 83.0319 34.7108 82.8563 34.7676Z" fill="white"/>
<path d="M85.4286 33.3127C85.8133 33.3127 86.1083 33.4112 86.3137 33.6083C86.5191 33.8015 86.6218 34.0894 86.6218 34.4721V36.3249H86.2409V35.8588C86.1512 36.0142 86.0187 36.1354 85.8431 36.2226C85.6713 36.3097 85.4659 36.3533 85.2269 36.3533C84.8983 36.3533 84.6369 36.2737 84.4427 36.1146C84.2485 35.9554 84.1514 35.7452 84.1514 35.4837C84.1514 35.2299 84.241 35.0253 84.4203 34.8699C84.6033 34.7146 84.8927 34.6369 85.2886 34.6369H86.2241V34.4551C86.2241 34.1974 86.1531 34.0023 86.0112 33.8697C85.8693 33.7333 85.662 33.6651 85.3894 33.6651C85.2027 33.6651 85.0234 33.6973 84.8516 33.7617C84.6798 33.8223 84.5323 33.9076 84.4091 34.0175L84.2298 33.7162C84.3792 33.5874 84.5584 33.4889 84.7676 33.4207C84.9767 33.3487 85.1971 33.3127 85.4286 33.3127ZM85.2886 36.035C85.5126 36.035 85.705 35.9839 85.8655 35.8816C86.0261 35.7755 86.1456 35.6239 86.2241 35.4269V34.9381H85.2998C84.7956 34.9381 84.5435 35.1162 84.5435 35.4724C84.5435 35.6467 84.6089 35.7849 84.7396 35.8872C84.8703 35.9858 85.0533 36.035 85.2886 36.035Z" fill="white"/>
<path d="M90.7504 35.9725V37.075H90.3751V36.3249H87.6806V33.3355H88.0783V35.9725H89.8765V33.3355H90.2742V35.9725H90.7504Z" fill="white"/>
<path d="M91.51 33.3355H91.9077V35.7111L93.874 33.3355H94.2269V36.3249H93.8291V33.9493L91.8685 36.3249H91.51V33.3355Z" fill="white"/>
<path d="M97.6299 33.3355V36.3249H97.2658V35.336H96.2294L95.546 36.3249H95.1146L95.8485 35.2791C95.6207 35.2147 95.4452 35.1049 95.3219 34.9495C95.1987 34.7942 95.1371 34.5971 95.1371 34.3584C95.1371 34.025 95.2491 33.7712 95.4732 33.5969C95.6972 33.4226 96.0035 33.3355 96.3919 33.3355H97.6299ZM95.5404 34.3698C95.5404 34.8131 95.8186 35.0348 96.3751 35.0348H97.2658V33.6935H96.4031C95.8279 33.6935 95.5404 33.9189 95.5404 34.3698Z" fill="white"/>
<path d="M102.874 33.3355V36.3249H102.476V33.6935H100.628V36.3249H100.23V33.3355H102.874Z" fill="white"/>
<path d="M105.22 36.3533C104.937 36.3533 104.681 36.2889 104.453 36.16C104.225 36.0274 104.046 35.8456 103.915 35.6144C103.784 35.3833 103.719 35.1219 103.719 34.8302C103.719 34.5384 103.784 34.277 103.915 34.0459C104.046 33.8148 104.225 33.6348 104.453 33.506C104.681 33.3771 104.937 33.3127 105.22 33.3127C105.504 33.3127 105.76 33.3771 105.988 33.506C106.216 33.6348 106.393 33.8148 106.52 34.0459C106.651 34.277 106.716 34.5384 106.716 34.8302C106.716 35.1219 106.651 35.3833 106.52 35.6144C106.393 35.8456 106.216 36.0274 105.988 36.16C105.76 36.2889 105.504 36.3533 105.22 36.3533ZM105.22 35.9952C105.429 35.9952 105.616 35.9479 105.781 35.8531C105.949 35.7546 106.079 35.6163 106.173 35.4383C106.266 35.2602 106.313 35.0575 106.313 34.8302C106.313 34.6028 106.266 34.4001 106.173 34.2221C106.079 34.044 105.949 33.9076 105.781 33.8129C105.616 33.7144 105.429 33.6651 105.22 33.6651C105.011 33.6651 104.823 33.7144 104.655 33.8129C104.49 33.9076 104.36 34.044 104.262 34.2221C104.169 34.4001 104.122 34.6028 104.122 34.8302C104.122 35.0575 104.169 35.2602 104.262 35.4383C104.36 35.6163 104.49 35.7546 104.655 35.8531C104.823 35.9479 105.011 35.9952 105.22 35.9952Z" fill="white"/>
<path d="M109.305 36.3249L108.37 35.0745L107.429 36.3249H106.98L108.146 34.7904L107.036 33.3355H107.485L108.37 34.5062L109.255 33.3355H109.692L108.583 34.7904L109.759 36.3249H109.305Z" fill="white"/>
<path d="M111.522 36.3533C111.239 36.3533 110.983 36.2889 110.755 36.16C110.527 36.0274 110.348 35.8456 110.217 35.6144C110.086 35.3833 110.021 35.1219 110.021 34.8302C110.021 34.5384 110.086 34.277 110.217 34.0459C110.348 33.8148 110.527 33.6348 110.755 33.506C110.983 33.3771 111.239 33.3127 111.522 33.3127C111.806 33.3127 112.062 33.3771 112.29 33.506C112.518 33.6348 112.695 33.8148 112.822 34.0459C112.953 34.277 113.018 34.5384 113.018 34.8302C113.018 35.1219 112.953 35.3833 112.822 35.6144C112.695 35.8456 112.518 36.0274 112.29 36.16C112.062 36.2889 111.806 36.3533 111.522 36.3533ZM111.522 35.9952C111.732 35.9952 111.918 35.9479 112.083 35.8531C112.251 35.7546 112.381 35.6163 112.475 35.4383C112.568 35.2602 112.615 35.0575 112.615 34.8302C112.615 34.6028 112.568 34.4001 112.475 34.2221C112.381 34.044 112.251 33.9076 112.083 33.8129C111.918 33.7144 111.732 33.6651 111.522 33.6651C111.313 33.6651 111.125 33.7144 110.957 33.8129C110.792 33.9076 110.662 34.044 110.565 34.2221C110.471 34.4001 110.424 34.6028 110.424 34.8302C110.424 35.0575 110.471 35.2602 110.565 35.4383C110.662 35.6163 110.792 35.7546 110.957 35.8531C111.125 35.9479 111.313 35.9952 111.522 35.9952Z" fill="white"/>
<path d="M116.726 35.9725V37.0466H116.35V36.3249H113.712V37.0466H113.336V35.9725H113.504C113.702 35.9611 113.837 35.8134 113.908 35.5292C113.979 35.245 114.027 34.8472 114.053 34.3357L114.093 33.3355H116.266V35.9725H116.726ZM114.418 34.3584C114.399 34.7828 114.363 35.1333 114.311 35.4099C114.259 35.6826 114.165 35.8702 114.031 35.9725H115.868V33.6935H114.451L114.418 34.3584Z" fill="white"/>
<path d="M118.716 36.3533C118.432 36.3533 118.177 36.2889 117.949 36.16C117.721 36.0274 117.542 35.8456 117.411 35.6144C117.28 35.3833 117.215 35.1219 117.215 34.8302C117.215 34.5384 117.28 34.277 117.411 34.0459C117.542 33.8148 117.721 33.6348 117.949 33.506C118.177 33.3771 118.432 33.3127 118.716 33.3127C119 33.3127 119.256 33.3771 119.484 33.506C119.712 33.6348 119.889 33.8148 120.016 34.0459C120.147 34.277 120.212 34.5384 120.212 34.8302C120.212 35.1219 120.147 35.3833 120.016 35.6144C119.889 35.8456 119.712 36.0274 119.484 36.16C119.256 36.2889 119 36.3533 118.716 36.3533ZM118.716 35.9952C118.925 35.9952 119.112 35.9479 119.276 35.8531C119.444 35.7546 119.575 35.6163 119.669 35.4383C119.762 35.2602 119.809 35.0575 119.809 34.8302C119.809 34.6028 119.762 34.4001 119.669 34.2221C119.575 34.044 119.444 33.9076 119.276 33.8129C119.112 33.7144 118.925 33.6651 118.716 33.6651C118.507 33.6651 118.318 33.7144 118.15 33.8129C117.986 33.9076 117.855 34.044 117.758 34.2221C117.665 34.4001 117.618 34.6028 117.618 34.8302C117.618 35.0575 117.665 35.2602 117.758 35.4383C117.855 35.6163 117.986 35.7546 118.15 35.8531C118.318 35.9479 118.507 35.9952 118.716 35.9952Z" fill="white"/>
<path d="M122.939 34.779C123.338 34.8737 123.538 35.1181 123.538 35.5121C123.538 35.7736 123.443 35.9744 123.252 36.1146C123.062 36.2548 122.778 36.3249 122.401 36.3249H121.062V33.3355H122.362C122.698 33.3355 122.961 33.4018 123.151 33.5344C123.342 33.667 123.437 33.8564 123.437 34.1027C123.437 34.2656 123.392 34.4058 123.303 34.5233C123.217 34.6369 123.095 34.7222 122.939 34.779ZM121.449 34.6653H122.334C122.561 34.6653 122.735 34.6218 122.855 34.5346C122.978 34.4475 123.039 34.3206 123.039 34.1539C123.039 33.9871 122.978 33.8621 122.855 33.7788C122.735 33.6954 122.561 33.6537 122.334 33.6537H121.449V34.6653ZM122.384 36.0066C122.638 36.0066 122.828 35.9649 122.955 35.8816C123.082 35.7982 123.146 35.6675 123.146 35.4894C123.146 35.3113 123.088 35.1806 122.972 35.0973C122.856 35.0101 122.673 34.9666 122.423 34.9666H121.449V36.0066H122.384Z" fill="white"/>
<path d="M127.813 34.779C128.212 34.8737 128.412 35.1181 128.412 35.5121C128.412 35.7736 128.317 35.9744 128.127 36.1146C127.936 36.2548 127.652 36.3249 127.275 36.3249H125.936V33.3355H127.236C127.572 33.3355 127.835 33.4018 128.026 33.5344C128.216 33.667 128.311 33.8564 128.311 34.1027C128.311 34.2656 128.267 34.4058 128.177 34.5233C128.091 34.6369 127.97 34.7222 127.813 34.779ZM126.323 34.6653H127.208C127.436 34.6653 127.609 34.6218 127.729 34.5346C127.852 34.4475 127.914 34.3206 127.914 34.1539C127.914 33.9871 127.852 33.8621 127.729 33.7788C127.609 33.6954 127.436 33.6537 127.208 33.6537H126.323V34.6653ZM127.258 36.0066C127.512 36.0066 127.703 35.9649 127.83 35.8816C127.957 35.7982 128.02 35.6675 128.02 35.4894C128.02 35.3113 127.962 35.1806 127.846 35.0973C127.731 35.0101 127.548 34.9666 127.297 34.9666H126.323V36.0066H127.258Z" fill="white"/>
<path d="M132.894 33.6935H131.208V36.3249H130.811V33.3355H132.894V33.6935Z" fill="white"/>
<path d="M134.548 36.3533C134.264 36.3533 134.008 36.2889 133.781 36.16C133.553 36.0274 133.374 35.8456 133.243 35.6144C133.112 35.3833 133.047 35.1219 133.047 34.8302C133.047 34.5384 133.112 34.277 133.243 34.0459C133.374 33.8148 133.553 33.6348 133.781 33.506C134.008 33.3771 134.264 33.3127 134.548 33.3127C134.832 33.3127 135.088 33.3771 135.316 33.506C135.543 33.6348 135.721 33.8148 135.848 34.0459C135.978 34.277 136.044 34.5384 136.044 34.8302C136.044 35.1219 135.978 35.3833 135.848 35.6144C135.721 35.8456 135.543 36.0274 135.316 36.16C135.088 36.2889 134.832 36.3533 134.548 36.3533ZM134.548 35.9952C134.757 35.9952 134.944 35.9479 135.108 35.8531C135.276 35.7546 135.407 35.6163 135.5 35.4383C135.594 35.2602 135.64 35.0575 135.64 34.8302C135.64 34.6028 135.594 34.4001 135.5 34.2221C135.407 34.044 135.276 33.9076 135.108 33.8129C134.944 33.7144 134.757 33.6651 134.548 33.6651C134.339 33.6651 134.15 33.7144 133.982 33.8129C133.818 33.9076 133.687 34.044 133.59 34.2221C133.497 34.4001 133.45 34.6028 133.45 34.8302C133.45 35.0575 133.497 35.2602 133.59 35.4383C133.687 35.6163 133.818 35.7546 133.982 35.8531C134.15 35.9479 134.339 35.9952 134.548 35.9952Z" fill="white"/>
<path d="M138.412 33.3127C138.688 33.3127 138.938 33.3771 139.163 33.506C139.387 33.631 139.562 33.8091 139.689 34.0402C139.816 34.2713 139.88 34.5346 139.88 34.8302C139.88 35.1295 139.816 35.3947 139.689 35.6258C139.562 35.8569 139.387 36.0369 139.163 36.1657C138.942 36.2908 138.692 36.3533 138.412 36.3533C138.173 36.3533 137.956 36.304 137.762 36.2055C137.572 36.1032 137.415 35.9554 137.292 35.7622V37.4274H136.894V33.3355H137.275V33.9265C137.394 33.7295 137.551 33.578 137.745 33.4719C137.943 33.3658 138.165 33.3127 138.412 33.3127ZM138.384 35.9952C138.589 35.9952 138.776 35.9479 138.944 35.8531C139.112 35.7546 139.243 35.6163 139.336 35.4383C139.433 35.2602 139.482 35.0575 139.482 34.8302C139.482 34.6028 139.433 34.402 139.336 34.2277C139.243 34.0497 139.112 33.9114 138.944 33.8129C138.776 33.7144 138.589 33.6651 138.384 33.6651C138.175 33.6651 137.986 33.7144 137.818 33.8129C137.654 33.9114 137.523 34.0497 137.426 34.2277C137.333 34.402 137.286 34.6028 137.286 34.8302C137.286 35.0575 137.333 35.2602 137.426 35.4383C137.523 35.6163 137.654 35.7546 137.818 35.8531C137.986 35.9479 138.175 35.9952 138.384 35.9952Z" fill="white"/>
<path d="M141.972 34.3926C142.342 34.3963 142.624 34.4797 142.818 34.6426C143.012 34.8055 143.109 35.0404 143.109 35.3473C143.109 35.6656 143.005 35.91 142.796 36.0805C142.586 36.251 142.288 36.3343 141.899 36.3305L140.734 36.3249V33.3355H141.132V34.3812L141.972 34.3926ZM143.602 33.3355H144V36.3249H143.602V33.3355ZM141.877 36.0236C142.15 36.0274 142.355 35.9725 142.493 35.8588C142.635 35.7414 142.706 35.5709 142.706 35.3473C142.706 35.1276 142.637 34.9647 142.499 34.8586C142.361 34.7525 142.153 34.6976 141.877 34.6938L141.132 34.6824V36.0123L141.877 36.0236Z" fill="white"/>
</g>
</g>

</g></symbol><symbol id="mail" viewBox="0 0 22 22"><g fill="none">
<path d="M21 5.55556V16.4444C21 17.3036 20.3604 18 19.5714 18H2.42857C1.63959 18 1 17.3036 1 16.4444V5.55556M21 5.55556C21 4.69645 20.3604 4 19.5714 4H2.42857C1.63959 4 1 4.69645 1 5.55556M21 5.55556L12.8594 13.1534C11.7895 14.152 10.2106 14.152 9.14062 13.1534L1 5.55556" stroke="#2D383F" stroke-linecap="round" stroke-linejoin="round"/>
</g></symbol><symbol id="map" viewBox="0 0 25 25"><g fill="none">
<g id="map" clip-path="url(#clip0_248_2190)">
<g id="Group">
<g id="Group_2">
<path id="Vector" d="M24.1704 22.2803V6.70123C24.1823 6.44571 23.9848 6.22897 23.7293 6.2171C23.6748 6.21456 23.6204 6.22168 23.5684 6.23812V6.26127L21.4844 6.91426C21.7026 6.33016 21.8321 5.71665 21.8688 5.09423C21.8688 2.28077 19.588 0 16.7745 0C13.9611 0 11.6803 2.28077 11.6803 5.09423C11.7128 5.68754 11.833 6.27279 12.0369 6.8309L8.59135 5.59902C8.55135 5.5941 8.51094 5.5941 8.47094 5.59902H8.43389C8.37837 5.60001 8.32344 5.61101 8.2718 5.63144L1.12598 8.41011C0.961171 8.47281 0.846262 8.62361 0.82959 8.79913V16.246V24.3967C0.830342 24.6525 1.03828 24.8592 1.29409 24.8585C1.35065 24.8583 1.40669 24.8478 1.45942 24.8274L8.44315 22.1229L16.4087 24.9756C16.5048 25.0081 16.6089 25.0081 16.7051 24.9756L23.8463 22.7434C24.0469 22.6806 24.18 22.4904 24.1704 22.2803ZM16.7745 0.926224C19.0765 0.926224 20.9425 2.79228 20.9425 5.09423C20.9425 6.905 18.2241 11.9066 16.7745 14.3565C15.325 11.8881 12.6065 6.88184 12.6065 5.09423C12.6065 2.79228 14.4726 0.926224 16.7745 0.926224ZM23.2581 21.9608L17.0246 23.9105V20.3769C17.0246 20.1212 16.8173 19.9138 16.5615 19.9138C16.3057 19.9138 16.0984 20.1212 16.0984 20.3769V23.8781L8.90163 21.3032V18.3392C8.90163 18.0835 8.69427 17.8761 8.43852 17.8761C8.18277 17.8761 7.97541 18.0835 7.97541 18.3392V21.3032L1.75581 23.7252V16.5655L4.04359 15.6393C4.2884 15.5652 4.42675 15.3067 4.35266 15.0618C4.27856 14.817 4.02003 14.6787 3.77521 14.7528C3.74963 14.7605 3.72473 14.7705 3.70083 14.7825L1.75576 15.5652V9.11868L7.97535 6.71049V8.09983C7.97535 8.35558 8.18271 8.56294 8.43846 8.56294C8.69421 8.56294 8.90157 8.35558 8.90157 8.09983V6.69197L12.4536 7.96553C13.5928 10.5687 14.9032 13.0936 16.3762 15.5235C16.5088 15.7422 16.7936 15.8119 17.0123 15.6793C17.076 15.6407 17.1295 15.5872 17.1681 15.5235C18.6339 13.1079 19.9396 10.5985 21.0768 8.01184L23.2442 7.33106L23.258 14.9215L20.9101 15.4911C20.6543 15.5218 20.4718 15.754 20.5025 16.0098C20.5332 16.2655 20.7655 16.448 21.0212 16.4173C21.0581 16.4218 21.0954 16.4218 21.1324 16.4173L23.258 15.8986V21.9608H23.2581Z" fill="#2D383F"/>
</g>
</g>
<g id="Group_3">
<g id="Group_4">
<path id="Vector_2" d="M16.7556 2.40332C15.2696 2.40332 14.0649 3.60799 14.0649 5.094C14.0649 6.58001 15.2696 7.78468 16.7556 7.78468C18.2406 7.78213 19.4438 6.57897 19.4463 5.094C19.4463 3.60799 18.2416 2.40332 16.7556 2.40332ZM16.7556 6.85846C15.7895 6.84584 15.0121 6.06028 15.0097 5.094H14.9912C14.9912 4.1195 15.7811 3.32954 16.7556 3.32954C17.7301 3.32954 18.5201 4.1195 18.5201 5.094C18.5201 6.0685 17.7301 6.85846 16.7556 6.85846Z" fill="#2D383F"/>
</g>
</g>
<g id="Group_5">
<g id="Group_6">
<path id="Vector_3" d="M10.6981 13.9672V13.9811L8.45661 13.0132C8.34251 12.9656 8.21411 12.9656 8.10001 13.0132L6.20589 13.7774C5.96802 13.8733 5.85294 14.1439 5.94886 14.3817C6.04478 14.6196 6.31536 14.7347 6.55322 14.6387L8.26673 13.9487L10.3276 14.8194C10.3861 14.8443 10.4492 14.8569 10.5128 14.8564C10.7686 14.8585 10.9776 14.6529 10.9797 14.3971C10.9812 14.2101 10.8701 14.0405 10.6981 13.9672Z" fill="#2D383F"/>
</g>
</g>
<g id="Group_7">
<g id="Group_8">
<path id="Vector_4" d="M18.27 16.6161C18.201 16.393 17.9766 16.2562 17.7467 16.2969L17.7513 16.2599L16.6028 16.5377L14.6578 15.6949C14.4224 15.5926 14.1487 15.7004 14.0465 15.9357C13.9442 16.171 14.052 16.4447 14.2873 16.547L16.3713 17.4732C16.4298 17.4982 16.4929 17.5108 16.5565 17.5103H16.6677L17.9644 17.1954C18.2087 17.1198 18.3455 16.8604 18.27 16.6161Z" fill="#2D383F"/>
</g>
</g>
</g>

</g></symbol><symbol id="menu" viewBox="0 0 26 26"><g fill="none">
<g id="icon/menu">
<g id="icon/menu_2">
<path d="M0 3.54541H26V5.71534H0V3.54541Z" fill="white"/>
<path d="M0 20.2846H26V22.4545H0V20.2846Z" fill="white"/>
<path d="M0 11.915H16.64V14.0849H0V11.915Z" fill="white"/>
</g>
</g>
</g></symbol><symbol id="moon" viewBox="0 0 22 22"><g fill="none">
<path d="M20.5272 12.382C20.3228 12.3307 20.1183 12.382 19.9394 12.5103C19.2748 13.0745 18.5081 13.5362 17.6646 13.844C16.8723 14.1518 16.0033 14.3057 15.0831 14.3057C13.0128 14.3057 11.1215 13.4593 9.76681 12.0999C8.41217 10.7405 7.56872 8.84251 7.56872 6.76497C7.56872 5.89291 7.72207 5.0465 7.97767 4.27704C8.25882 3.45628 8.66777 2.71247 9.20451 2.07125C9.43454 1.78912 9.38343 1.37874 9.10227 1.1479C8.92336 1.01966 8.71888 0.96836 8.51441 1.01966C6.34188 1.60958 4.4505 2.91766 3.09586 4.66177C1.79234 6.38024 1 8.50908 1 10.8431C1 13.6388 2.12461 16.178 3.96487 18.0247C5.80513 19.8715 8.3355 21 11.1215 21C13.4729 21 15.6454 20.1792 17.3835 18.8199C19.147 17.4348 20.425 15.4599 20.9618 13.2028C21.0895 12.8181 20.8851 12.459 20.5272 12.382ZM16.6167 17.7426C15.1342 18.9225 13.2429 19.6406 11.1726 19.6406C8.74444 19.6406 6.54635 18.6403 4.96168 17.0501C3.37701 15.4599 2.3802 13.2541 2.3802 10.8175C2.3802 8.79122 3.04474 6.94451 4.1949 5.45688C4.98724 4.43094 5.98405 3.58453 7.13421 2.99461C7.00642 3.27674 6.87862 3.55888 6.77638 3.86666C6.44411 4.79002 6.29076 5.76467 6.29076 6.79062C6.29076 9.22724 7.28757 11.4587 8.87224 13.0489C10.4569 14.6391 12.6806 15.6394 15.1087 15.6394C16.1822 15.6394 17.2045 15.4599 18.1502 15.1008C18.4825 14.9726 18.8148 14.8443 19.1215 14.6904C18.5081 15.8703 17.6646 16.9219 16.6167 17.7426Z" fill="#2D383F"/>
</g></symbol><symbol id="mountain" viewBox="0 0 25 25"><g fill="none">
<g id="mountain" clip-path="url(#clip0_248_2161)">
<g id="Group">
<g id="Group_2">
<path id="Vector" d="M23.4153 24.1879L19.3747 14.7901L15.5583 5.9074C15.4551 5.665 15.1749 5.55224 14.9325 5.65546C14.8192 5.70376 14.7289 5.79404 14.6806 5.9074L11.2744 13.8121L9.93871 16.9177L7.00963 10.1579C6.90634 9.91551 6.62614 9.80274 6.3838 9.90596C6.27044 9.95427 6.18016 10.0445 6.13186 10.1579L3.37928 16.517L0.0399368 24.1831C-0.0654315 24.4246 0.0448861 24.7058 0.286333 24.8112C0.347037 24.8377 0.412572 24.8513 0.478822 24.851H22.9765C23.2399 24.8508 23.4533 24.6371 23.4531 24.3736C23.4531 24.3098 23.4402 24.2467 23.4153 24.1879ZM15.1147 7.29561L18.2107 14.4943H17.1231L15.1576 12.3237C14.9804 12.1287 14.6787 12.1143 14.4837 12.2916C14.4531 12.3194 14.4263 12.351 14.4039 12.3857L13.6692 13.5211H12.4384L15.1147 7.29561ZM6.57074 11.5318L9.018 17.1896H7.68226C7.52007 17.1899 7.36914 17.2726 7.28154 17.4091L6.80449 18.1676L5.57371 16.4311C5.48474 16.3028 5.33864 16.2262 5.18253 16.226H4.54805L6.57074 11.5318ZM1.22779 23.8969L4.13302 17.1801H4.93446L6.42285 19.3029C6.51182 19.4312 6.65792 19.5078 6.81403 19.5081C6.97283 19.5046 7.11947 19.4223 7.20522 19.2886L7.93987 18.1532H9.42826L11.9137 23.8778L1.22779 23.8969ZM12.9584 23.8969L10.4587 18.1246L12.0282 14.4752H13.9364C14.0986 14.4749 14.2495 14.3923 14.3371 14.2558L14.8666 13.44L16.5554 15.3053C16.6455 15.4052 16.7738 15.4624 16.9084 15.4627H18.6162L22.2466 23.9112L12.9584 23.8969Z" fill="#2D383F"/>
</g>
</g>
<g id="Group_3">
<g id="Group_4">
<path id="Vector_2" d="M7.61096 2.08189C7.16093 0.922602 5.85626 0.347698 4.69703 0.797794C3.83387 1.13286 3.26385 1.96221 3.26028 2.8881C3.25557 2.97075 3.25557 3.05352 3.26028 3.13617C2.13241 3.65997 1.64278 4.99893 2.16658 6.12679C2.52932 6.90778 3.30572 7.41351 4.16667 7.42961L4.19052 7.44869H7.52987C9.01188 7.47112 10.2314 6.28786 10.2538 4.80584C10.2762 3.32383 9.09298 2.10431 7.61096 2.08189ZM7.55849 6.50891H4.21914C3.50512 6.58267 2.86653 6.0637 2.79277 5.34968C2.719 4.63565 3.23797 3.99706 3.952 3.9233C4.21026 3.87124 4.37747 3.61972 4.32541 3.3614C4.32141 3.34166 4.31622 3.32216 4.30978 3.30314C4.26321 3.16968 4.23906 3.02943 4.23823 2.8881C4.23417 2.17146 4.81176 1.58725 5.52841 1.58314C6.16234 1.5795 6.70606 2.03448 6.81429 2.65912C6.85812 2.90993 7.09122 3.08208 7.34382 3.0503C7.41531 3.04559 7.48699 3.04559 7.55849 3.0503C8.51354 3.0503 9.28779 3.82455 9.28779 4.7796C9.28779 5.73466 8.51354 6.50891 7.55849 6.50891Z" fill="#2D383F"/>
</g>
</g>
<g id="Group_5">
<g id="Group_6">
<path id="Vector_3" d="M23.6966 2.63997C23.7013 2.55733 23.7013 2.47456 23.6966 2.39191C23.6917 1.14836 22.6797 0.144172 21.4362 0.148943C20.517 0.152521 19.6936 0.714604 19.3539 1.56727C17.8794 1.59816 16.7046 2.81392 16.7269 4.29057C16.7493 5.77258 17.9688 6.95584 19.4508 6.93342H22.7902C24.0335 6.91016 25.0226 5.88343 24.9994 4.64006C24.9833 3.77911 24.4776 3.00271 23.6966 2.63997ZM24.0559 4.94758C23.9296 5.54008 23.4102 5.96632 22.8045 5.97455H19.4651C18.5101 5.97455 17.7358 5.2003 17.7358 4.24525C17.7358 3.29019 18.5101 2.51594 19.4651 2.51594C19.5366 2.51123 19.6083 2.51123 19.6798 2.51594C19.9212 2.54099 20.1429 2.38088 20.195 2.14384C20.3146 1.43727 20.9843 0.961417 21.6909 1.08098C22.3975 1.20054 22.8734 1.87026 22.7538 2.57688C22.7416 2.64862 22.7235 2.71922 22.6995 2.78792C22.6153 3.03754 22.7494 3.3082 22.9991 3.39246C23.0181 3.3989 23.0376 3.40415 23.0573 3.40808C23.7582 3.5574 24.2053 4.24668 24.0559 4.94758Z" fill="#2D383F"/>
</g>
</g>
</g>

</g></symbol><symbol id="ok" viewBox="0 0 9 16"><g fill="none">
<path d="M4.5 2.42035C5.41587 2.42035 6.1607 3.18736 6.1607 4.1305C6.1607 5.0708 5.41587 5.83781 4.5 5.83781C3.58413 5.83781 2.8393 5.0708 2.8393 4.1305C2.8393 3.18736 3.58413 2.42035 4.5 2.42035ZM4.5 8.25816C6.71243 8.25816 8.51106 6.40597 8.51106 4.1305C8.51106 1.85219 6.71243 0 4.5 0C2.28757 0 0.491701 1.85219 0.491701 4.1305C0.491701 6.40597 2.28757 8.25816 4.5 8.25816ZM6.12208 11.6273C6.93863 11.4342 7.72485 11.1018 8.45037 10.6331C8.99934 10.278 9.16486 9.53083 8.82003 8.96551C8.47244 8.39735 7.74967 8.22691 7.19795 8.58485C5.55656 9.6473 3.44344 9.6473 1.79929 8.58485C1.25033 8.22691 0.524805 8.39735 0.179975 8.96551C-0.164855 9.53083 0.000663014 10.278 0.549632 10.6331C1.27515 11.1018 2.06136 11.4342 2.87792 11.6273L0.63515 13.934C0.177216 14.4056 0.177216 15.1726 0.63515 15.6442C0.866875 15.88 1.16481 15.9993 1.4655 15.9993C1.76619 15.9993 2.06688 15.88 2.29861 15.6442L4.5 13.3772L6.70415 15.6442C7.16208 16.1186 7.90416 16.1186 8.36485 15.6442C8.82278 15.1726 8.82278 14.4056 8.36485 13.934L6.12208 11.6273Z" fill="#2D383F"/>
</g></symbol><symbol id="path" viewBox="0 0 22 22"><g fill="none">
<g clip-path="url(#clip0_131_2519)">
<path d="M18.1429 8.76743H12.7857C11.1091 8.76743 9.75 10.1366 9.75 11.8256C9.75 13.5145 11.1091 14.8837 12.7857 14.8837H15.1071C16.7837 14.8837 18.1429 16.2529 18.1429 17.9419C18.1429 19.6308 16.7837 21 15.1071 21H3.85714M6.71428 15.9302C6.71428 14.3406 5.4351 13.0519 3.85714 13.0519C2.27919 13.0519 1 14.3406 1 15.9302V16.0384C1 16.6695 1.1985 17.2845 1.56701 17.7949L3.8515 20.9593C3.85429 20.9632 3.86 20.9632 3.86279 20.9593L6.14727 17.7949C6.51578 17.2845 6.71428 16.6695 6.71428 16.0384V15.9302ZM4.40947 14.7454L4.42662 14.7535C4.77242 14.9183 5.02453 15.2332 5.11112 15.6086C5.19868 15.9881 5.10458 16.3904 4.86077 16.6929C4.61964 16.9921 4.25485 17.1691 3.87232 17.1691H3.84197C3.45944 17.1691 3.09464 16.9921 2.85352 16.6929C2.60971 16.3904 2.51561 15.9881 2.60316 15.6086C2.68975 15.2332 2.94186 14.9183 3.28767 14.7535L3.30482 14.7454C3.65446 14.5788 4.05982 14.5788 4.40947 14.7454ZM21 3.89849C21 2.30887 19.7208 1 18.1429 1C16.5649 1 15.2857 2.30887 15.2857 3.89849C15.2857 4.52339 15.4857 5.1384 15.8561 5.63972L18.1372 8.72766C18.14 8.73147 18.1457 8.73147 18.1485 8.72766L20.4297 5.63972C20.8 5.1384 21 4.52339 21 3.89849ZM18.6875 2.65136L18.7262 2.66941C19.0631 2.82627 19.3099 3.13018 19.3957 3.4939C19.4838 3.86694 19.3925 4.25998 19.1492 4.55491L19.137 4.56971C18.8999 4.85725 18.548 5.02359 18.1769 5.02359H18.1088C17.7377 5.02359 17.3858 4.85725 17.1487 4.56971L17.1365 4.55491C16.8932 4.25998 16.8019 3.86694 16.89 3.4939C16.9758 3.13018 17.2226 2.82627 17.5595 2.66941L17.5983 2.65136C17.9438 2.49048 18.342 2.49048 18.6875 2.65136Z" stroke="#0266C1" stroke-linecap="round"/>
</g>

</g></symbol><symbol id="phone" viewBox="0 0 22 22"><g fill="none">
<g clip-path="url(#clip0_131_2514)">
<path d="M19.3236 20.0443C19.0034 20.6753 18.3438 21.0672 17.6426 20.9904C17.3412 20.9575 17.0402 20.9171 16.7396 20.8693C12.8229 20.2465 9.20304 18.3949 6.39895 15.5797C3.59486 12.7646 1.75046 9.1305 1.1301 5.19831C1.08254 4.89683 1.04236 4.59477 1.00952 4.29242C0.933062 3.58844 1.32346 2.92622 1.95195 2.60473L4.70244 1.19777C5.76693 0.653244 7.05498 1.28842 7.42933 2.42743C7.65638 3.11826 7.92452 3.79805 8.23342 4.4631C8.38821 4.79636 8.5524 5.12412 8.72567 5.44606C9.13588 6.20824 8.85917 7.18583 8.0736 7.54431C6.93267 8.06496 6.66094 9.56938 7.54713 10.4591L11.4995 14.427C12.3857 15.3167 13.8842 15.0439 14.4028 13.8985C14.7796 13.0663 15.8009 12.765 16.6118 13.1807C16.8084 13.2814 17.0071 13.3788 17.2078 13.4728C17.9681 13.8287 18.7478 14.1308 19.5413 14.3784C20.6964 14.7389 21.3521 16.0475 20.8029 17.1296L19.3236 20.0443Z" stroke="#2D383F" stroke-linecap="round" stroke-linejoin="round"/>
</g>

</g></symbol><symbol id="pin-filled" viewBox="0 0 22 22"><g fill="none">
<path d="M18.5 8.14732C18.5 4.19996 15.1421 1 11 1C6.85786 1 3.5 4.19996 3.5 8.14732V8.57782C3.5 10.1572 4.01784 11.6971 4.98114 12.9823L10.9852 20.9927C10.9924 21.0024 11.0076 21.0024 11.0148 20.9927L17.0189 12.9823C17.9822 11.6971 18.5 10.1572 18.5 8.57782V8.14732Z" fill="#0266C1"/>
<path d="M9.66733 5.76428C10.5095 5.38052 11.4905 5.38052 12.3327 5.76428C13.1748 6.14804 13.7865 6.87379 13.9945 7.73609C14.2025 8.59839 13.9842 9.50338 13.4014 10.1949C12.8186 10.8864 11.9347 11.2892 11 11.2892C10.0653 11.2892 9.18141 10.8864 8.59862 10.1949C8.01582 9.50338 7.79753 8.59839 8.00552 7.73609C8.21352 6.87379 8.82517 6.14804 9.66733 5.76428Z" fill="white"/>
</g></symbol><symbol id="pin-stroke" viewBox="0 0 22 22"><g fill="none">
<path d="M18.5 8.14732C18.5 4.19996 15.1421 1 11 1C6.85786 1 3.5 4.19996 3.5 8.14732V8.57782C3.5 10.1572 4.01784 11.6971 4.98114 12.9823L10.9852 20.9927C10.9924 21.0024 11.0076 21.0024 11.0148 20.9927L17.0189 12.9823C17.9822 11.6971 18.5 10.1572 18.5 8.57782V8.14732Z" stroke="#2D383F" stroke-linecap="round" stroke-linejoin="round"/>
<path d="M9.53407 5.28903C10.4604 4.86389 11.5396 4.86389 12.4659 5.28903C13.3923 5.71417 14.0651 6.51818 14.2939 7.47347C14.5227 8.42875 14.2826 9.43134 13.6415 10.1974C13.0004 10.9635 12.0282 11.4097 11 11.4097C9.9718 11.4097 8.99955 10.9635 8.35848 10.1974C7.7174 9.43134 7.47728 8.42875 7.70608 7.47347C7.93487 6.51818 8.60769 5.71417 9.53407 5.28903Z" stroke="#2D383F" stroke-linecap="round" stroke-linejoin="round"/>
</g></symbol><symbol id="pine-tree" viewBox="0 0 23 23"><g fill="none">
<g id="pine-tree" clip-path="url(#clip0_248_2173)">
<g id="Group">
<g id="Group_2">
<path id="Vector" d="M22.6246 16.6365L18.1102 11.472H20.2913C20.546 11.4714 20.7519 11.2644 20.7514 11.0098C20.7511 10.9084 20.7175 10.8099 20.6556 10.7296L17.0312 5.96623H18.8757C19.1304 5.96589 19.3365 5.75919 19.3363 5.50454C19.3361 5.39271 19.2953 5.28475 19.2215 5.20077L14.7856 0.156126C14.6172 -0.0348923 14.3257 -0.0531642 14.1347 0.115317C14.1202 0.128056 14.1066 0.141716 14.0939 0.156126L9.65332 5.19616C9.4827 5.38522 9.49763 5.67682 9.68663 5.84744C9.77229 5.92473 9.88376 5.9671 9.99916 5.96623H11.8667L10.7508 7.42337L7.76273 4.02492C7.5943 3.8339 7.30288 3.81563 7.11186 3.98411C7.09739 3.99685 7.08379 4.01051 7.07105 4.02492L3.27604 8.33639C3.10796 8.52769 3.12681 8.81906 3.31811 8.98714C3.40209 9.06092 3.51005 9.10167 3.62188 9.10184H5.08362L2.04946 13.0721C1.89919 13.2777 1.94398 13.5662 2.14958 13.7165C2.22636 13.7726 2.31864 13.8036 2.41374 13.8053H4.11988L0.370984 18.1167C0.205442 18.3102 0.228094 18.6013 0.421649 18.7669C0.503959 18.8373 0.608518 18.8765 0.716823 18.8776H5.8168V22.1054C5.8168 22.5994 6.21734 23 6.71138 23H8.11779C8.61182 23.0025 9.01444 22.6041 9.01697 22.11C9.01697 22.1085 9.01697 22.107 9.01697 22.1054V18.8776H12.8443V22.1054C12.8443 22.5994 13.2448 23 13.7388 23H15.1453C15.6393 23 16.0398 22.5994 16.0398 22.1054V17.402H22.2788C22.5334 17.4017 22.7396 17.195 22.7393 16.9403C22.7391 16.8285 22.6984 16.7205 22.6246 16.6365ZM8.09473 22.0777L6.73904 22.1054L6.71138 18.8776H8.09473V22.0777ZM12.8443 17.9553H1.73129L5.50324 13.6531C5.67397 13.4642 5.65916 13.1726 5.47021 13.0018C5.38214 12.9223 5.2668 12.8797 5.14818 12.883H3.34981L6.38398 8.91279C6.53932 8.71099 6.50168 8.42146 6.29988 8.26612C6.21953 8.20428 6.12109 8.17061 6.0197 8.17038H4.63634L7.40306 5.02094L10.1698 8.16116L8.22385 10.7342C8.06851 10.936 8.10615 11.2255 8.30795 11.3809C8.3883 11.4427 8.48674 11.4764 8.58813 11.4766H10.7738L6.25948 16.6411C6.0914 16.8325 6.11025 17.1238 6.30156 17.2919C6.38554 17.3657 6.4935 17.4064 6.60532 17.4066H12.8443V17.9553ZM15.1176 22.0685L13.7665 22.1054L13.7388 17.402H15.1222L15.1176 22.0685ZM15.1453 16.4798H7.61978L12.1341 11.3152C12.3022 11.1239 12.2834 10.8325 12.0921 10.6645C12.0081 10.5907 11.9001 10.5499 11.7883 10.5498H9.52421L13.167 5.78178C13.3199 5.57808 13.2786 5.28902 13.0749 5.13622C12.9963 5.07731 12.901 5.04497 12.8028 5.04399H11.0367L14.4582 1.16137L17.8612 5.04399H16.0813C15.8267 5.04463 15.6207 5.25155 15.6213 5.50621C15.6215 5.6076 15.6552 5.70605 15.717 5.7864L19.3368 10.5498H17.0912C16.8365 10.5501 16.6303 10.7568 16.6306 11.0115C16.6307 11.1233 16.6716 11.2312 16.7453 11.3152L21.2597 16.4798H15.1453Z" fill="#2D383F"/>
</g>
</g>
</g>

</g></symbol><symbol id="reddit" viewBox="0 0 14 15"><g fill="none">
<path d="M8.36171 0C7.91277 0 7.49149 0.244007 7.22128 0.59589C6.95106 0.947774 6.80213 1.37671 6.69362 1.82877C6.52128 2.55565 6.46808 3.36216 6.45532 4.08904C5.19361 4.17894 4.05105 4.57962 3.10211 5.19863C2.717 4.85188 2.25317 4.65925 1.80849 4.66438C1.3021 4.66952 0.821252 4.90325 0.463803 5.38356C-0.219178 6.30051 -0.140455 7.80051 0.651038 8.69178C0.602102 8.96661 0.565931 9.24914 0.565931 9.53425C0.565931 12.5548 3.44679 15 7 15C10.5532 15 13.4341 12.5522 13.4341 9.53425C13.4341 9.24914 13.3979 8.96661 13.349 8.69178C14.1405 7.80051 14.2192 6.30051 13.5362 5.38356C13.1788 4.90325 12.6979 4.66952 12.1915 4.66438C11.7468 4.65925 11.283 4.85188 10.8979 5.19863C9.9532 4.58219 8.81703 4.18151 7.5617 4.08904C7.57873 3.41866 7.62341 2.7226 7.74894 2.19863C7.82766 1.86986 7.92128 1.63099 8.02128 1.5C8.12128 1.36901 8.19362 1.31507 8.36171 1.31507C8.72554 1.31507 8.77235 1.44092 8.9915 1.74658C9.10214 1.90068 9.2298 2.09332 9.43405 2.28082C9.63831 2.46832 9.94044 2.63014 10.2681 2.63014V1.31507C10.1766 1.31507 10.1596 1.3125 10.0979 1.25342C10.0362 1.19435 9.95108 1.05822 9.82554 0.883562C9.57448 0.531678 9.08724 0 8.36171 0ZM11.9021 0.123288C11.0553 0.123288 10.3702 0.950343 10.3702 1.9726C10.3702 2.99486 11.0553 3.82192 11.9021 3.82192C12.749 3.82192 13.4341 2.99486 13.4341 1.9726C13.4341 0.950343 12.749 0.123288 11.9021 0.123288ZM11.9021 0.780822C12.4468 0.780822 12.8894 1.31507 12.8894 1.9726C12.8894 2.63014 12.4468 3.16438 11.9021 3.16438C11.3575 3.16438 10.9149 2.63014 10.9149 1.9726C10.9149 1.31507 11.3575 0.780822 11.9021 0.780822ZM7 5.11644C10.0149 5.11644 12.566 7.14298 12.566 9.53425C12.566 11.9281 10.0149 13.9521 7 13.9521C3.98509 13.9521 1.43402 11.9281 1.43402 9.53425C1.43402 7.14298 3.98509 5.11644 7 5.11644ZM1.82551 5.71233C1.97658 5.7149 2.13402 5.75599 2.28509 5.83562C1.73828 6.33647 1.30423 6.91182 1.00849 7.56164C0.80423 7.05308 0.85955 6.41866 1.11061 6.08219C1.29359 5.83562 1.54679 5.70976 1.82551 5.71233ZM12.1745 5.71233C12.4532 5.70976 12.7064 5.83562 12.8894 6.08219C13.1405 6.41866 13.1958 7.05308 12.9915 7.56164C12.6958 6.91182 12.2617 6.33647 11.7149 5.83562C11.866 5.75599 12.0234 5.7149 12.1745 5.71233ZM4.82127 7.35616C4.27658 7.35616 3.83403 7.89041 3.83403 8.54795C3.83403 9.20548 4.27658 9.73973 4.82127 9.73973C5.36595 9.73973 5.80851 9.20548 5.80851 8.54795C5.80851 7.89041 5.36595 7.35616 4.82127 7.35616ZM9.17873 7.35616C8.63405 7.35616 8.19149 7.89041 8.19149 8.54795C8.19149 9.20548 8.63405 9.73973 9.17873 9.73973C9.72342 9.73973 10.166 9.20548 10.166 8.54795C10.166 7.89041 9.72342 7.35616 9.17873 7.35616ZM4.29361 11.4041C4.64042 12.2697 5.71276 13.1096 7 13.1096C8.28724 13.1096 9.37661 12.2697 9.72342 11.4041C9.09363 11.8947 8.10001 12.226 7 12.226C5.9 12.226 4.9234 11.8947 4.29361 11.4041Z" fill="#2D383F"/>
</g></symbol><symbol id="securuty" viewBox="0 0 22 22"><g fill="none">
<path d="M8.75001 10.912L11 13.1562L14.9375 9.22882M11 1C8.67869 2.18698 6.09257 2.81813 3.44902 2.81813C3.09212 2.81813 2.73627 2.80662 2.38197 2.7838C1.92463 4.87029 1.87403 7.04136 2.25148 9.17646C2.92717 12.9986 4.93142 16.4612 7.91222 18.9559C8.86795 19.7558 9.90448 20.4398 11 21C12.0955 20.4398 13.132 19.7558 14.0878 18.9559C17.0686 16.4612 19.0728 12.9986 19.7485 9.17647C20.126 7.04136 20.0754 4.87029 19.618 2.7838C19.2637 2.80662 18.9078 2.81813 18.5509 2.81813C15.9074 2.81813 13.3212 2.18698 11 1Z" stroke="#0266C1"/>
</g></symbol><symbol id="video-play-active" viewBox="0 0 56 56"><g fill="none">
<circle cx="28" cy="28" r="27.5" fill="#1C3374" stroke="#1C3374"/>
<path d="M37 28L25 17V39L37 28Z" fill="white"/>
</g></symbol><symbol id="video-play-default" viewBox="0 0 56 56"><g fill="none">
<circle cx="28" cy="28" r="27.5" fill="white" fill-opacity="0.2" stroke="white"/>
<path d="M37 28L25 17V39L37 28Z" fill="white"/>
</g></symbol><symbol id="video-play-disabled" viewBox="0 0 56 56"><g fill="none">
<circle cx="28" cy="28" r="27.5" stroke="#0266C1" stroke-opacity="0.1"/>
<path d="M37 28L25 17V39L37 28Z" fill="#0266C1" fill-opacity="0.1"/>
</g></symbol><symbol id="video-play-hover" viewBox="0 0 56 56"><g fill="none">
<circle cx="28" cy="28" r="27.5" stroke="#1C3374"/>
<path d="M37 28L25 17V39L37 28Z" fill="white" stroke="black"/>
</g></symbol><symbol id="vk" viewBox="0 0 16 9"><g fill="none">
<path d="M15.8574 8.02743C15.8144 7.95645 15.5484 7.38659 14.2683 6.21531C12.9282 4.98883 13.1082 5.18799 14.7223 3.06728C15.7054 1.77572 16.0984 0.986988 15.9754 0.649804C15.8584 0.328395 15.1353 0.413184 15.1353 0.413184L12.7312 0.426986C12.7312 0.426986 12.5531 0.403324 12.4201 0.481212C12.2911 0.558114 12.2081 0.735579 12.2081 0.735579C12.2081 0.735579 11.8271 1.7353 11.3191 2.58516C10.248 4.37855 9.81894 4.4732 9.64393 4.36179C9.2369 4.10249 9.33891 3.31869 9.33891 2.76263C9.33891 1.02445 9.60593 0.299803 8.81787 0.112478C8.55585 0.0503654 8.36384 0.00895679 7.69479 0.00205536C6.83672 -0.00681791 6.10967 0.00501311 5.69864 0.203183C5.42462 0.335296 5.21361 0.630086 5.34262 0.646846C5.50163 0.667551 5.86165 0.74248 6.05267 0.998819C6.29969 1.3291 6.29069 2.07248 6.29069 2.07248C6.29069 2.07248 6.4327 4.11827 5.95966 4.37263C5.63464 4.54714 5.1896 4.19122 4.23453 2.56347C3.7455 1.73037 3.37547 0.808537 3.37547 0.808537C3.37547 0.808537 3.30447 0.636987 3.17746 0.545297C3.02345 0.433888 2.80743 0.398395 2.80743 0.398395L0.521262 0.412198C0.521262 0.412198 0.178236 0.422057 0.0522271 0.568959C-0.0597811 0.700086 0.0432264 0.970227 0.0432264 0.970227C0.0432264 0.970227 1.83336 5.09827 3.85951 7.17954C5.71864 9.0873 7.8288 8.96208 7.8288 8.96208H8.78487C8.78487 8.96208 9.07389 8.93054 9.2209 8.77377C9.35691 8.62983 9.35191 8.35969 9.35191 8.35969C9.35191 8.35969 9.33291 7.09475 9.92895 6.90842C10.516 6.72504 11.2701 8.13095 12.0691 8.67222C12.6732 9.08138 13.1322 8.99166 13.1322 8.99166L15.2693 8.96208C15.2693 8.96208 16.3874 8.89406 15.8574 8.02743Z" fill="#2D383F"/>
</g></symbol></svg>