<svg width="144" height="44" viewBox="0 0 144 44" fill="none" xmlns="http://www.w3.org/2000/svg"><g id="logotype" clip-path="url(#clip0_3305_95)"><g id="logotype_2"><path d="M15.953 28.5418L19.7742 24.4714L24.1207 28.5418H31.5719L19.7264 16.7665L7.97639 28.5418H15.953Z" fill="white"/><path d="M26.8913 9.64317L21.2551 15.4581L24.9807 19.3348L26.8913 17.3965L37.3516 27.9604C34.9634 34.4053 28.8496 39.0088 21.6372 39.0088C12.3709 39.0088 4.87195 31.4009 4.87195 22C4.91971 12.5991 12.4187 4.99119 21.685 4.99119C29.9004 4.99119 36.7784 11.0485 38.1636 18.9471L43.2266 24.3744C43.3221 23.5991 43.3699 22.7753 43.3699 22C43.3699 16.1366 41.125 10.6123 37.0173 6.44493C32.9095 2.27753 27.4644 0 21.685 0C15.8577 0 10.4604 2.27753 6.35264 6.44493C2.24492 10.6123 0 16.0881 0 22C0 27.9119 2.24492 33.3877 6.35264 37.5551C10.4604 41.7225 15.9055 44 21.685 44C27.4644 44 32.9095 41.7225 37.0173 37.5551C39.5488 34.9868 41.3638 31.9339 42.3669 28.5903C42.5579 28.0088 42.7012 27.3789 42.8445 26.7974L38.4502 22.0969L26.8913 9.64317Z" fill="white"/><path d="M61.2624 14.1371H64.4512L62.7118 23.0093H68.091L67.5757 25.5746H59.0076L61.2624 14.1371Z" fill="white"/><path d="M71.0923 14.1371H74.2811L72.0264 25.5746H68.8375L71.0923 14.1371Z" fill="white"/><path d="M79.2394 16.637L78.7402 19.1532H83.7167L83.2175 21.6532H78.257L77.484 25.5746H74.2951L76.5499 14.1371H85.3756L84.8763 16.637H79.2394Z" fill="white"/><path d="M89.5243 16.637L89.1539 18.565H94.1627L93.6956 20.9832H88.6708L88.2681 23.0747H94.1788L93.6634 25.5746H84.6283L86.8831 14.1371H95.7088L95.2095 16.637H89.5243Z" fill="white"/><path d="M99.5882 16.7023H96.1255L96.6409 14.1371H106.739L106.224 16.7023H102.777L101.022 25.5746H97.8327L99.5882 16.7023Z" fill="white"/><path d="M111.603 25.8033C110.465 25.8033 109.471 25.5909 108.623 25.1661C107.786 24.7413 107.136 24.1476 106.675 23.3851C106.224 22.6226 105.998 21.7512 105.998 20.7708C105.998 19.4637 106.293 18.2873 106.884 17.2415C107.485 16.1958 108.317 15.3789 109.38 14.7906C110.454 14.2024 111.673 13.9083 113.036 13.9083C114.174 13.9083 115.162 14.1207 116 14.5456C116.848 14.9704 117.497 15.564 117.948 16.3265C118.41 17.089 118.641 17.9605 118.641 18.9408C118.641 20.248 118.34 21.4244 117.739 22.4701C117.148 23.5158 116.316 24.3328 115.243 24.921C114.18 25.5092 112.966 25.8033 111.603 25.8033ZM111.877 23.1237C112.585 23.1237 113.208 22.944 113.745 22.5845C114.282 22.225 114.695 21.7457 114.985 21.1466C115.275 20.5366 115.42 19.8667 115.42 19.1369C115.42 18.3635 115.184 17.7481 114.711 17.2906C114.249 16.8222 113.6 16.588 112.762 16.588C112.054 16.588 111.431 16.7677 110.894 17.1272C110.357 17.4866 109.944 17.9714 109.654 18.5814C109.364 19.1805 109.219 19.8449 109.219 20.5748C109.219 21.3482 109.45 21.969 109.912 22.4374C110.384 22.8949 111.039 23.1237 111.877 23.1237Z" fill="white"/><path d="M124.627 25.8033C123.65 25.8033 122.807 25.64 122.099 25.3132C121.39 24.9755 120.848 24.4962 120.472 23.8753C120.096 23.2544 119.908 22.5246 119.908 21.6858C119.908 21.3373 119.951 20.9342 120.037 20.4767L121.293 14.1371H124.482L123.242 20.4277C123.178 20.7545 123.146 21.054 123.146 21.3264C123.146 22.5246 123.768 23.1237 125.014 23.1237C125.69 23.1237 126.222 22.9167 126.608 22.5028C127.005 22.078 127.301 21.3863 127.494 20.4277L128.734 14.1371H131.875L130.602 20.6238C129.915 24.0768 127.923 25.8033 124.627 25.8033Z" fill="white"/><path d="M143.408 17.7807C143.408 18.8265 143.134 19.7306 142.587 20.4931C142.039 21.2447 141.272 21.7948 140.284 22.1433L142.2 25.5746H138.866L137.191 22.5355H135.581L134.985 25.5746H131.796L134.051 14.1371H138.866C140.305 14.1371 141.422 14.4584 142.216 15.1011C143.011 15.7438 143.408 16.637 143.408 17.7807ZM140.187 18.0912C140.187 17.6228 140.031 17.2742 139.72 17.0455C139.409 16.8058 138.974 16.686 138.415 16.686H136.741L136.064 20.0356H137.965C138.673 20.0356 139.221 19.8667 139.607 19.529C139.994 19.1914 140.187 18.7121 140.187 18.0912Z" fill="white"/><path d="M61.1307 36.359C60.7423 36.359 60.3894 36.2718 60.072 36.0975C59.7583 35.9194 59.5118 35.677 59.3325 35.3701C59.157 35.0632 59.0692 34.7184 59.0692 34.3357C59.0692 33.953 59.157 33.6083 59.3325 33.3014C59.5118 32.9945 59.7583 32.7539 60.072 32.5796C60.3894 32.4015 60.7423 32.3125 61.1307 32.3125C61.5191 32.3125 61.8683 32.3996 62.1783 32.5739C62.492 32.7482 62.7385 32.9907 62.9177 33.3014C63.097 33.6083 63.1866 33.953 63.1866 34.3357C63.1866 34.7184 63.097 35.0651 62.9177 35.3758C62.7385 35.6826 62.492 35.9232 62.1783 36.0975C61.8683 36.2718 61.5191 36.359 61.1307 36.359ZM61.1307 35.9839C61.4407 35.9839 61.7208 35.9138 61.971 35.7736C62.2212 35.6296 62.4173 35.4326 62.5592 35.1825C62.7011 34.9287 62.7721 34.6464 62.7721 34.3357C62.7721 34.025 62.7011 33.7447 62.5592 33.4946C62.4173 33.2407 62.2212 33.0437 61.971 32.9035C61.7208 32.7596 61.4407 32.6876 61.1307 32.6876C60.8207 32.6876 60.5388 32.7596 60.2848 32.9035C60.0346 33.0437 59.8367 33.2407 59.691 33.4946C59.5491 33.7447 59.4782 34.025 59.4782 34.3357C59.4782 34.6464 59.5491 34.9287 59.691 35.1825C59.8367 35.4326 60.0346 35.6296 60.2848 35.7736C60.5388 35.9138 60.8207 35.9839 61.1307 35.9839Z" fill="white"/><path d="M65.5987 33.3127C65.875 33.3127 66.1253 33.3771 66.3493 33.506C66.5734 33.631 66.7489 33.8091 66.8759 34.0402C67.0029 34.2713 67.0664 34.5346 67.0664 34.8302C67.0664 35.1295 67.0029 35.3947 66.8759 35.6258C66.7489 35.8569 66.5734 36.0369 66.3493 36.1657C66.129 36.2908 65.8788 36.3533 65.5987 36.3533C65.3597 36.3533 65.1431 36.304 64.9489 36.2055C64.7584 36.1032 64.6015 35.9554 64.4783 35.7622V37.4274H64.0806V33.3355H64.4615V33.9265C64.581 33.7295 64.7379 33.578 64.9321 33.4719C65.13 33.3658 65.3522 33.3127 65.5987 33.3127ZM65.5707 35.9952C65.7761 35.9952 65.9628 35.9479 66.1309 35.8531C66.2989 35.7546 66.4296 35.6163 66.523 35.4383C66.6201 35.2602 66.6686 35.0575 66.6686 34.8302C66.6686 34.6028 66.6201 34.402 66.523 34.2277C66.4296 34.0497 66.2989 33.9114 66.1309 33.8129C65.9628 33.7144 65.7761 33.6651 65.5707 33.6651C65.3615 33.6651 65.1729 33.7144 65.0049 33.8129C64.8406 33.9114 64.7099 34.0497 64.6128 34.2277C64.5194 34.402 64.4727 34.6028 64.4727 34.8302C64.4727 35.0575 64.5194 35.2602 64.6128 35.4383C64.7099 35.6163 64.8406 35.7546 65.0049 35.8531C65.1729 35.9479 65.3615 35.9952 65.5707 35.9952Z" fill="white"/><path d="M70.0048 33.6935H68.3186V36.3249H67.9209V33.3355H70.0048V33.6935Z" fill="white"/><path d="M71.5935 33.3127C71.9782 33.3127 72.2732 33.4112 72.4786 33.6083C72.684 33.8015 72.7867 34.0894 72.7867 34.4721V36.3249H72.4058V35.8588C72.3162 36.0142 72.1836 36.1354 72.0081 36.2226C71.8363 36.3097 71.6309 36.3533 71.3919 36.3533C71.0632 36.3533 70.8018 36.2737 70.6076 36.1146C70.4134 35.9554 70.3163 35.7452 70.3163 35.4837C70.3163 35.2299 70.406 35.0253 70.5852 34.8699C70.7682 34.7146 71.0576 34.6369 71.4535 34.6369H72.389V34.4551C72.389 34.1974 72.318 34.0023 72.1761 33.8697C72.0342 33.7333 71.827 33.6651 71.5543 33.6651C71.3676 33.6651 71.1883 33.6973 71.0165 33.7617C70.8448 33.8223 70.6973 33.9076 70.574 34.0175L70.3947 33.7162C70.5441 33.5874 70.7234 33.4889 70.9325 33.4207C71.1417 33.3487 71.362 33.3127 71.5935 33.3127ZM71.4535 36.035C71.6776 36.035 71.8699 35.9839 72.0305 35.8816C72.1911 35.7755 72.3106 35.6239 72.389 35.4269V34.9381H71.4647C70.9605 34.9381 70.7084 35.1162 70.7084 35.4724C70.7084 35.6467 70.7738 35.7849 70.9045 35.8872C71.0352 35.9858 71.2182 36.035 71.4535 36.035Z" fill="white"/><path d="M73.8455 33.3355H74.2433V34.6597H76.0975V33.3355H76.4952V36.3249H76.0975V35.0063H74.2433V36.3249H73.8455V33.3355Z" fill="white"/><path d="M77.6257 33.3355H78.0234V35.7111L79.9897 33.3355H80.3426V36.3249H79.9449V33.9493L77.9842 36.3249H77.6257V33.3355Z" fill="white"/><path d="M82.8563 34.7676C83.0655 34.8169 83.2261 34.9021 83.3381 35.0234C83.4539 35.1446 83.5118 35.2924 83.5118 35.4667C83.5118 35.641 83.452 35.7963 83.3325 35.9327C83.2167 36.0691 83.058 36.1752 82.8563 36.251C82.6547 36.323 82.4325 36.359 82.1897 36.359C81.9768 36.359 81.7677 36.3286 81.5623 36.268C81.3569 36.2036 81.1777 36.1108 81.0245 35.9895L81.159 35.6883C81.2934 35.7906 81.4503 35.8702 81.6295 35.927C81.8088 35.9839 81.9899 36.0123 82.1729 36.0123C82.4455 36.0123 82.6677 35.9611 82.8395 35.8588C83.0151 35.7527 83.1028 35.6107 83.1028 35.4326C83.1028 35.2735 83.0319 35.1503 82.89 35.0632C82.748 34.9722 82.5538 34.9268 82.3074 34.9268H81.8032V34.6312H82.285C82.5053 34.6312 82.6827 34.5896 82.8171 34.5062C82.9516 34.4191 83.0188 34.3035 83.0188 34.1595C83.0188 34.0004 82.9422 33.8754 82.7891 33.7844C82.6397 33.6935 82.4437 33.648 82.2009 33.648C81.8835 33.648 81.5698 33.7295 81.2598 33.8924L81.1478 33.5798C81.4988 33.3942 81.8629 33.3014 82.2401 33.3014C82.4642 33.3014 82.6659 33.3355 82.8451 33.4037C83.0281 33.4681 83.17 33.5609 83.2709 33.6821C83.3754 33.8034 83.4277 33.9436 83.4277 34.1027C83.4277 34.2543 83.3754 34.3888 83.2709 34.5062C83.17 34.6237 83.0319 34.7108 82.8563 34.7676Z" fill="white"/><path d="M85.4286 33.3127C85.8133 33.3127 86.1083 33.4112 86.3137 33.6083C86.5191 33.8015 86.6218 34.0894 86.6218 34.4721V36.3249H86.2409V35.8588C86.1512 36.0142 86.0187 36.1354 85.8431 36.2226C85.6713 36.3097 85.4659 36.3533 85.2269 36.3533C84.8983 36.3533 84.6369 36.2737 84.4427 36.1146C84.2485 35.9554 84.1514 35.7452 84.1514 35.4837C84.1514 35.2299 84.241 35.0253 84.4203 34.8699C84.6033 34.7146 84.8927 34.6369 85.2886 34.6369H86.2241V34.4551C86.2241 34.1974 86.1531 34.0023 86.0112 33.8697C85.8693 33.7333 85.662 33.6651 85.3894 33.6651C85.2027 33.6651 85.0234 33.6973 84.8516 33.7617C84.6798 33.8223 84.5323 33.9076 84.4091 34.0175L84.2298 33.7162C84.3792 33.5874 84.5584 33.4889 84.7676 33.4207C84.9767 33.3487 85.1971 33.3127 85.4286 33.3127ZM85.2886 36.035C85.5126 36.035 85.705 35.9839 85.8655 35.8816C86.0261 35.7755 86.1456 35.6239 86.2241 35.4269V34.9381H85.2998C84.7956 34.9381 84.5435 35.1162 84.5435 35.4724C84.5435 35.6467 84.6089 35.7849 84.7396 35.8872C84.8703 35.9858 85.0533 36.035 85.2886 36.035Z" fill="white"/><path d="M90.7504 35.9725V37.075H90.3751V36.3249H87.6806V33.3355H88.0783V35.9725H89.8765V33.3355H90.2742V35.9725H90.7504Z" fill="white"/><path d="M91.51 33.3355H91.9077V35.7111L93.874 33.3355H94.2269V36.3249H93.8291V33.9493L91.8685 36.3249H91.51V33.3355Z" fill="white"/><path d="M97.6299 33.3355V36.3249H97.2658V35.336H96.2294L95.546 36.3249H95.1146L95.8485 35.2791C95.6207 35.2147 95.4452 35.1049 95.3219 34.9495C95.1987 34.7942 95.1371 34.5971 95.1371 34.3584C95.1371 34.025 95.2491 33.7712 95.4732 33.5969C95.6972 33.4226 96.0035 33.3355 96.3919 33.3355H97.6299ZM95.5404 34.3698C95.5404 34.8131 95.8186 35.0348 96.3751 35.0348H97.2658V33.6935H96.4031C95.8279 33.6935 95.5404 33.9189 95.5404 34.3698Z" fill="white"/><path d="M102.874 33.3355V36.3249H102.476V33.6935H100.628V36.3249H100.23V33.3355H102.874Z" fill="white"/><path d="M105.22 36.3533C104.937 36.3533 104.681 36.2889 104.453 36.16C104.225 36.0274 104.046 35.8456 103.915 35.6144C103.784 35.3833 103.719 35.1219 103.719 34.8302C103.719 34.5384 103.784 34.277 103.915 34.0459C104.046 33.8148 104.225 33.6348 104.453 33.506C104.681 33.3771 104.937 33.3127 105.22 33.3127C105.504 33.3127 105.76 33.3771 105.988 33.506C106.216 33.6348 106.393 33.8148 106.52 34.0459C106.651 34.277 106.716 34.5384 106.716 34.8302C106.716 35.1219 106.651 35.3833 106.52 35.6144C106.393 35.8456 106.216 36.0274 105.988 36.16C105.76 36.2889 105.504 36.3533 105.22 36.3533ZM105.22 35.9952C105.429 35.9952 105.616 35.9479 105.781 35.8531C105.949 35.7546 106.079 35.6163 106.173 35.4383C106.266 35.2602 106.313 35.0575 106.313 34.8302C106.313 34.6028 106.266 34.4001 106.173 34.2221C106.079 34.044 105.949 33.9076 105.781 33.8129C105.616 33.7144 105.429 33.6651 105.22 33.6651C105.011 33.6651 104.823 33.7144 104.655 33.8129C104.49 33.9076 104.36 34.044 104.262 34.2221C104.169 34.4001 104.122 34.6028 104.122 34.8302C104.122 35.0575 104.169 35.2602 104.262 35.4383C104.36 35.6163 104.49 35.7546 104.655 35.8531C104.823 35.9479 105.011 35.9952 105.22 35.9952Z" fill="white"/><path d="M109.305 36.3249L108.37 35.0745L107.429 36.3249H106.98L108.146 34.7904L107.036 33.3355H107.485L108.37 34.5062L109.255 33.3355H109.692L108.583 34.7904L109.759 36.3249H109.305Z" fill="white"/><path d="M111.522 36.3533C111.239 36.3533 110.983 36.2889 110.755 36.16C110.527 36.0274 110.348 35.8456 110.217 35.6144C110.086 35.3833 110.021 35.1219 110.021 34.8302C110.021 34.5384 110.086 34.277 110.217 34.0459C110.348 33.8148 110.527 33.6348 110.755 33.506C110.983 33.3771 111.239 33.3127 111.522 33.3127C111.806 33.3127 112.062 33.3771 112.29 33.506C112.518 33.6348 112.695 33.8148 112.822 34.0459C112.953 34.277 113.018 34.5384 113.018 34.8302C113.018 35.1219 112.953 35.3833 112.822 35.6144C112.695 35.8456 112.518 36.0274 112.29 36.16C112.062 36.2889 111.806 36.3533 111.522 36.3533ZM111.522 35.9952C111.732 35.9952 111.918 35.9479 112.083 35.8531C112.251 35.7546 112.381 35.6163 112.475 35.4383C112.568 35.2602 112.615 35.0575 112.615 34.8302C112.615 34.6028 112.568 34.4001 112.475 34.2221C112.381 34.044 112.251 33.9076 112.083 33.8129C111.918 33.7144 111.732 33.6651 111.522 33.6651C111.313 33.6651 111.125 33.7144 110.957 33.8129C110.792 33.9076 110.662 34.044 110.565 34.2221C110.471 34.4001 110.424 34.6028 110.424 34.8302C110.424 35.0575 110.471 35.2602 110.565 35.4383C110.662 35.6163 110.792 35.7546 110.957 35.8531C111.125 35.9479 111.313 35.9952 111.522 35.9952Z" fill="white"/><path d="M116.726 35.9725V37.0466H116.35V36.3249H113.712V37.0466H113.336V35.9725H113.504C113.702 35.9611 113.837 35.8134 113.908 35.5292C113.979 35.245 114.027 34.8472 114.053 34.3357L114.093 33.3355H116.266V35.9725H116.726ZM114.418 34.3584C114.399 34.7828 114.363 35.1333 114.311 35.4099C114.259 35.6826 114.165 35.8702 114.031 35.9725H115.868V33.6935H114.451L114.418 34.3584Z" fill="white"/><path d="M118.716 36.3533C118.432 36.3533 118.177 36.2889 117.949 36.16C117.721 36.0274 117.542 35.8456 117.411 35.6144C117.28 35.3833 117.215 35.1219 117.215 34.8302C117.215 34.5384 117.28 34.277 117.411 34.0459C117.542 33.8148 117.721 33.6348 117.949 33.506C118.177 33.3771 118.432 33.3127 118.716 33.3127C119 33.3127 119.256 33.3771 119.484 33.506C119.712 33.6348 119.889 33.8148 120.016 34.0459C120.147 34.277 120.212 34.5384 120.212 34.8302C120.212 35.1219 120.147 35.3833 120.016 35.6144C119.889 35.8456 119.712 36.0274 119.484 36.16C119.256 36.2889 119 36.3533 118.716 36.3533ZM118.716 35.9952C118.925 35.9952 119.112 35.9479 119.276 35.8531C119.444 35.7546 119.575 35.6163 119.669 35.4383C119.762 35.2602 119.809 35.0575 119.809 34.8302C119.809 34.6028 119.762 34.4001 119.669 34.2221C119.575 34.044 119.444 33.9076 119.276 33.8129C119.112 33.7144 118.925 33.6651 118.716 33.6651C118.507 33.6651 118.318 33.7144 118.15 33.8129C117.986 33.9076 117.855 34.044 117.758 34.2221C117.665 34.4001 117.618 34.6028 117.618 34.8302C117.618 35.0575 117.665 35.2602 117.758 35.4383C117.855 35.6163 117.986 35.7546 118.15 35.8531C118.318 35.9479 118.507 35.9952 118.716 35.9952Z" fill="white"/><path d="M122.939 34.779C123.338 34.8737 123.538 35.1181 123.538 35.5121C123.538 35.7736 123.443 35.9744 123.252 36.1146C123.062 36.2548 122.778 36.3249 122.401 36.3249H121.062V33.3355H122.362C122.698 33.3355 122.961 33.4018 123.151 33.5344C123.342 33.667 123.437 33.8564 123.437 34.1027C123.437 34.2656 123.392 34.4058 123.303 34.5233C123.217 34.6369 123.095 34.7222 122.939 34.779ZM121.449 34.6653H122.334C122.561 34.6653 122.735 34.6218 122.855 34.5346C122.978 34.4475 123.039 34.3206 123.039 34.1539C123.039 33.9871 122.978 33.8621 122.855 33.7788C122.735 33.6954 122.561 33.6537 122.334 33.6537H121.449V34.6653ZM122.384 36.0066C122.638 36.0066 122.828 35.9649 122.955 35.8816C123.082 35.7982 123.146 35.6675 123.146 35.4894C123.146 35.3113 123.088 35.1806 122.972 35.0973C122.856 35.0101 122.673 34.9666 122.423 34.9666H121.449V36.0066H122.384Z" fill="white"/><path d="M127.813 34.779C128.212 34.8737 128.412 35.1181 128.412 35.5121C128.412 35.7736 128.317 35.9744 128.127 36.1146C127.936 36.2548 127.652 36.3249 127.275 36.3249H125.936V33.3355H127.236C127.572 33.3355 127.835 33.4018 128.026 33.5344C128.216 33.667 128.311 33.8564 128.311 34.1027C128.311 34.2656 128.267 34.4058 128.177 34.5233C128.091 34.6369 127.97 34.7222 127.813 34.779ZM126.323 34.6653H127.208C127.436 34.6653 127.609 34.6218 127.729 34.5346C127.852 34.4475 127.914 34.3206 127.914 34.1539C127.914 33.9871 127.852 33.8621 127.729 33.7788C127.609 33.6954 127.436 33.6537 127.208 33.6537H126.323V34.6653ZM127.258 36.0066C127.512 36.0066 127.703 35.9649 127.83 35.8816C127.957 35.7982 128.02 35.6675 128.02 35.4894C128.02 35.3113 127.962 35.1806 127.846 35.0973C127.731 35.0101 127.548 34.9666 127.297 34.9666H126.323V36.0066H127.258Z" fill="white"/><path d="M132.894 33.6935H131.208V36.3249H130.811V33.3355H132.894V33.6935Z" fill="white"/><path d="M134.548 36.3533C134.264 36.3533 134.008 36.2889 133.781 36.16C133.553 36.0274 133.374 35.8456 133.243 35.6144C133.112 35.3833 133.047 35.1219 133.047 34.8302C133.047 34.5384 133.112 34.277 133.243 34.0459C133.374 33.8148 133.553 33.6348 133.781 33.506C134.008 33.3771 134.264 33.3127 134.548 33.3127C134.832 33.3127 135.088 33.3771 135.316 33.506C135.543 33.6348 135.721 33.8148 135.848 34.0459C135.978 34.277 136.044 34.5384 136.044 34.8302C136.044 35.1219 135.978 35.3833 135.848 35.6144C135.721 35.8456 135.543 36.0274 135.316 36.16C135.088 36.2889 134.832 36.3533 134.548 36.3533ZM134.548 35.9952C134.757 35.9952 134.944 35.9479 135.108 35.8531C135.276 35.7546 135.407 35.6163 135.5 35.4383C135.594 35.2602 135.64 35.0575 135.64 34.8302C135.64 34.6028 135.594 34.4001 135.5 34.2221C135.407 34.044 135.276 33.9076 135.108 33.8129C134.944 33.7144 134.757 33.6651 134.548 33.6651C134.339 33.6651 134.15 33.7144 133.982 33.8129C133.818 33.9076 133.687 34.044 133.59 34.2221C133.497 34.4001 133.45 34.6028 133.45 34.8302C133.45 35.0575 133.497 35.2602 133.59 35.4383C133.687 35.6163 133.818 35.7546 133.982 35.8531C134.15 35.9479 134.339 35.9952 134.548 35.9952Z" fill="white"/><path d="M138.412 33.3127C138.688 33.3127 138.938 33.3771 139.163 33.506C139.387 33.631 139.562 33.8091 139.689 34.0402C139.816 34.2713 139.88 34.5346 139.88 34.8302C139.88 35.1295 139.816 35.3947 139.689 35.6258C139.562 35.8569 139.387 36.0369 139.163 36.1657C138.942 36.2908 138.692 36.3533 138.412 36.3533C138.173 36.3533 137.956 36.304 137.762 36.2055C137.572 36.1032 137.415 35.9554 137.292 35.7622V37.4274H136.894V33.3355H137.275V33.9265C137.394 33.7295 137.551 33.578 137.745 33.4719C137.943 33.3658 138.165 33.3127 138.412 33.3127ZM138.384 35.9952C138.589 35.9952 138.776 35.9479 138.944 35.8531C139.112 35.7546 139.243 35.6163 139.336 35.4383C139.433 35.2602 139.482 35.0575 139.482 34.8302C139.482 34.6028 139.433 34.402 139.336 34.2277C139.243 34.0497 139.112 33.9114 138.944 33.8129C138.776 33.7144 138.589 33.6651 138.384 33.6651C138.175 33.6651 137.986 33.7144 137.818 33.8129C137.654 33.9114 137.523 34.0497 137.426 34.2277C137.333 34.402 137.286 34.6028 137.286 34.8302C137.286 35.0575 137.333 35.2602 137.426 35.4383C137.523 35.6163 137.654 35.7546 137.818 35.8531C137.986 35.9479 138.175 35.9952 138.384 35.9952Z" fill="white"/><path d="M141.972 34.3926C142.342 34.3963 142.624 34.4797 142.818 34.6426C143.012 34.8055 143.109 35.0404 143.109 35.3473C143.109 35.6656 143.005 35.91 142.796 36.0805C142.586 36.251 142.288 36.3343 141.899 36.3305L140.734 36.3249V33.3355H141.132V34.3812L141.972 34.3926ZM143.602 33.3355H144V36.3249H143.602V33.3355ZM141.877 36.0236C142.15 36.0274 142.355 35.9725 142.493 35.8588C142.635 35.7414 142.706 35.5709 142.706 35.3473C142.706 35.1276 142.637 34.9647 142.499 34.8586C142.361 34.7525 142.153 34.6976 141.877 34.6938L141.132 34.6824V36.0123L141.877 36.0236Z" fill="white"/></g></g><defs><clipPath id="clip0_3305_95"><rect width="144" height="44" fill="white"/></clipPath></defs></svg>