<svg width="22" height="22" viewBox="0 0 22 22" fill="none" xmlns="http://www.w3.org/2000/svg">
<path d="M18.5 8.14732C18.5 4.19996 15.1421 1 11 1C6.85786 1 3.5 4.19996 3.5 8.14732V8.57782C3.5 10.1572 4.01784 11.6971 4.98114 12.9823L10.9852 20.9927C10.9924 21.0024 11.0076 21.0024 11.0148 20.9927L17.0189 12.9823C17.9822 11.6971 18.5 10.1572 18.5 8.57782V8.14732Z" fill="#0266C1"/>
<path d="M9.66733 5.76428C10.5095 5.38052 11.4905 5.38052 12.3327 5.76428C13.1748 6.14804 13.7865 6.87379 13.9945 7.73609C14.2025 8.59839 13.9842 9.50338 13.4014 10.1949C12.8186 10.8864 11.9347 11.2892 11 11.2892C10.0653 11.2892 9.18141 10.8864 8.59862 10.1949C8.01582 9.50338 7.79753 8.59839 8.00552 7.73609C8.21352 6.87379 8.82517 6.14804 9.66733 5.76428Z" fill="white"/>
</svg>
